<svg version="1.2" xmlns="http://www.w3.org/2000/svg" viewBox="0 0 800 800" width="800" height="800">
	<title>logotypes of trucks</title>
	<style>
		.s0 { fill: #000000 } 
	</style>
	<path id="deutz" fill-rule="evenodd" class="s0" d="m0 769h799.9v30.9h-799.9zm633.3-155.4h-143.7l-38.3-68.8-51.3 68.8-51.3-68.8-38.2 68.8h-143.7l135.7-245.3 16.4 21.5 81.1-389.8 81.2 389.8 16.4-21.5zm-125.6-30.9h73.2l-87.4-157.9-28.7 37.4-64.8-310.4-64.8 310.4-28.7-37.4-87.4 157.9h73.2l52.4-94.6 55.3 73.9 55.3-73.9zm-336.3 51.3h139.1v29.5h-92.9v14.2h76.5v27.3h-76.5v14.2h92.9v29.4h-139.1zm362.5 29.5h-44.4v-29.5h138.7v29.5h-44.1v85.2h-50.2zm104.5 55.7l80.4-55.7h-80.4v-29.5h161.5v29.5l-80.4 55.7h80.4v29.4h-161.5c0 0 0-29.4 0-29.4zm-638.4-85.2h82.3l10.2 0.4 9.4 0.7 8.4 1.4 8 2.2 7.6 2.6 6.6 3.2 5.5 3.3 5 4 4.4 4 4 4.8 3.3 4.3 2.5 5.1 1.9 5.1 1.4 5.5 0.7 5.4 0.4 5.5-0.4 5.1-0.7 5.5-1.4 5.4-1.9 5.1-2.5 4.7-3.3 4.8-4 4.7-4.4 4-5 3.6-5.5 3.7-6.6 2.9-7.6 2.5-8 2.2-8.4 1.5-9.4 1.1-10.2 0.3h-82.3zm112.1 52.8l-1.1-4.7-1.8-4.8-3.3-4.3-1.8-1.9-2.2-1.8-2.9-1.8-2.9-1.4-2.9-1.1-3.7-0.8-4.3-0.7h-39v55.7h35l4-0.4 4.3-0.3 3.7-0.8 2.9-1.4 2.9-1.5 2.9-1.4 2.2-1.9 1.8-2.1 3.3-4.4 1.8-4.4 1.1-4.7 0.4-4.4zm294.8 35.7l6.5-0.7 5.5-1.5 4.7-1.8 4-2.9 1.5-1.5 1.4-1.8 1.1-2.2 0.7-1.8 0.4-2.5 0.4-3v-68.7h46.2v67.3l-0.4 5.8-0.7 5.8-1.8 5.1-2.2 5.1-2.9 4.4-3.7 4-4 3.6-5.1 3.7-5.1 2.5-6.1 2.6-6.6 2.2-6.9 1.8-7.7 1.4-8.3 0.8-8.8 0.7h-18.5l-8.8-0.7-8-0.8-7.6-1.4-6.9-1.8-6.9-2.2-5.9-2.6-5.1-2.5-5-3.7-4-3.6-3.7-4-2.9-4.4-2.2-5.1-1.8-5.1-1.1-5.8v-73.1h46.2v71.7l0.8 2.5 0.7 1.8 1.1 2.2 1.1 1.8 1.8 1.5 4 2.9 4.7 1.8 5.5 1.5 6.5 0.7zm348.7-194.7h4.4l2.1 0.4 1.9 0.3 2.1 0.4 2.2 0.7 1.8 0.7 1.9 0.8 2.1 0.7 1.9 1.1 1.8 0.7 1.4 1.1 1.9 1.5 1.8 1.1 1.4 1.4 1.5 1.5 1.4 1.4 1.5 1.8 1.5 1.5 1 1.8 1.1 1.8 1.1 1.9 0.8 1.8 0.7 1.8 0.7 1.8 0.7 1.8 0.4 2.2 0.7 1.8 0.4 2.2v2.2l0.4 2.2v4l-0.4 2.2v2.2l-0.4 2.1-0.7 1.9-0.4 2.1-0.7 1.9-0.7 1.8-0.7 1.8-1.1 1.8-0.8 1.8-1.1 1.9-1.4 1.4-1.1 1.8-1.5 1.5-1.4 1.4-1.5 1.5-1.8 1.5-1.8 1.4-1.5 1.1-1.8 1.1-1.8 1.1-1.8 1.1-2.2 0.7-1.8 0.7-1.8 0.8-2.2 0.3-1.8 0.8-2.2 0.3-1.8 0.4h-8.4l-2.2-0.4-1.8-0.3-2.2-0.8-1.8-0.3-2.2-0.8-1.8-0.7-1.8-0.7-1.9-1.1-1.8-1.1-1.8-1.1-1.8-1.1-1.5-1.4-1.8-1.5-1.5-1.5-1.4-1.4-1.5-1.5-1.1-1.8-1.4-1.4-1.1-1.9-0.7-1.8-1.1-1.8-0.7-1.8-0.8-2.2-0.7-1.8-0.7-1.8-0.4-2.2-0.4-2.2v-1.8l-0.3-1.1v-6.2l0.3-1.1v-2.2l0.4-1.8 0.7-2.2 0.4-2.2 0.7-1.8 0.7-1.8 0.8-1.8 1.1-2.2 1.1-1.8 1.1-1.5 1-1.8 1.5-1.8 1.5-1.5 1.4-1.8 1.5-1.5 1.4-1 1.8-1.5 1.5-1.1 1.8-1.1 1.8-1.1 1.9-1.1 1.8-0.7 1.8-0.7 1.8-0.4 2.2-0.7 1.8-0.4 2.2-0.3 2.2-0.4h4zm37.5 42.6v-3.7l-0.4-1.8-0.4-1.8-0.7-3.6-0.7-1.9-0.4-1.8-0.7-1.4-1.1-1.9-0.7-1.4-1.1-1.5-1.1-1.8-1.1-1.1-1.1-1.4-1.1-1.5-1.4-1.4-1.5-1.1-1.5-1.1-1.4-1.1-1.5-1.1-1.8-0.7-1.4-1.1-1.9-0.8-1.8-0.3-1.4-0.8-1.9-0.3-1.8-0.4-1.8-0.3-1.8-0.4h-7.7l-1.8 0.4-1.8 0.3-1.8 0.4-1.8 0.3-1.5 0.4-1.8 0.7-1.5 0.8-1.8 0.7-1.4 1.1-1.5 0.7-1.4 1.1-1.5 1.1-1.5 1.1-1.1 1.4-1.4 1.5-1.1 1.5-1.5 1.4-1 1.5-0.8 1.4-1.1 1.8-0.7 1.5-0.7 1.8-0.7 1.8-0.8 1.9-0.3 1.4-0.4 1.8-0.4 1.9-0.3 1.8v7.2l0.3 1.9 0.4 1.8 0.4 1.8 0.3 1.8 0.8 1.5 0.7 1.8 0.7 1.8 0.7 1.5 0.8 1.4 1.1 1.8 1 1.5 1.1 1.5 1.5 1.4 1.1 1.5 1.4 1.1 1.5 1.4 1.5 1.1 1.4 1.1 1.5 0.7 1.4 1.1 1.8 0.8 1.5 0.7 1.8 0.7 1.8 0.4 1.5 0.7 1.8 0.4 1.8 0.3h1.8l1.9 0.4h3.6l1.8-0.4h1.8l1.9-0.3 1.8-0.4 1.8-0.7 1.8-0.4 1.8-0.7 1.5-0.7 1.5-0.8 1.8-1.1 1.4-0.7 1.8-1.1 1.5-1.1 1.1-1.4 1.5-1.1 1.4-1.5 1.1-1.4 1.1-1.5 1.1-1.5 1.1-1.4 0.7-1.5 0.7-1.4 0.8-1.8 0.7-1.9 0.7-1.4 0.4-1.8 0.3-1.9 0.4-1.8 0.4-1.8v-3.6q0 0 0 0zm-35-25.1h3.3l1.5 0.3h0.7l1.1 0.4h1.1l0.7 0.4h1.1l0.7 0.3 0.7 0.4 1.1 0.3 0.4 0.4 0.7 0.4 0.8 0.3 0.7 0.4 0.4 0.4 0.7 0.7 0.3 0.4 0.4 0.3 0.7 0.7 0.4 0.8 0.4 0.3v0.8l0.3 0.7 0.4 0.7v1.5l0.4 0.7v2.9l-0.4 1.1v1.1l-0.4 1.1-0.3 1.1-0.8 1.1-0.3 1.1-0.8 0.7-0.7 0.7-1.1 0.8-0.7 0.7-1.1 0.7-1.1 0.4-1.1 0.3-1.4 0.4-1.1 0.4 10.9 22.2h-9.1l-10.2-21.1h-10.2v21.1h-8.4v-48.4h18.2zm-10.9 5.1v17.1h9.8l1.9-0.4h1.1l1.4-0.4h1.1l1.1-0.3 1.1-0.4 0.7-0.4 0.4-0.3 0.3-0.4h0.4l0.4-0.3 0.3-0.4 0.4-0.4v-0.3l0.4-0.4v-0.4l0.3-0.3v-1.1l0.4-0.4v-3.3l-0.4-0.7v-0.7l-0.3-0.8v-0.3l-0.4-0.4v-0.3l-0.4-0.4-0.3-0.4-0.4-0.3-0.4-0.4h-0.3l-0.4-0.4-0.7-0.3-1.1-0.8-1.1-0.3h-1.5l-1-0.4h-3l-1.8-0.3z"/>
</svg>