<svg version="1.2" xmlns="http://www.w3.org/2000/svg" viewBox="0 0 800 800" width="800" height="800">
	<title>logotypes of trucks</title>
	<style>
		.s0 { fill: #000000 } 
	</style>
	<path id="jcb" class="s0" d="m435 328.5c32.4 2.4 57.5 12.2 78.5 22.8v-43.7c0 0-41.9-10.5-81.4-12.3-137.5-6.1-176.5 47.9-176.5 104.3 0 56.5 39 110.5 176.5 104.4 39.5-1.8 81.4-12.3 81.4-12.3v-43.7c-20.7 10.3-46.1 20.4-78.5 22.8-56 4.2-89.7-23-89.7-71.1 0-48.2 33.7-75.4 89.7-71.2zm305.6 69v-1.2c30.5-4.5 47.2-24.2 47.2-47.3 0-29.5-24.5-46.4-57.6-48.1-2.6-0.1-6.8-0.4-10.2-0.4h-177.7v198.3h191.8c37.7 0 65.9-20.2 65.9-51.6 0-29-25.7-47.4-59.4-49.7zm-116.6-66.2h54.4c2 0 4.8 0.3 5.9 0.5 11.3 1.9 20.9 11 20.9 24.6 0 13.6-9.6 22.7-20.9 24.6q-0.7 0.1-1.5 0.2-0.7 0.1-1.5 0.2-0.7 0-1.4 0-0.8 0.1-1.5 0.1h-54.4c0 0 0-50.2 0-50.2zm67.2 134.6c-1.7 0.3-5.3 0.7-7.2 0.7h-60v-54.4h60c1.9 0 5.5 0.3 7.2 0.7 3 0.6 5.8 1.8 8.4 3.4 2.6 1.6 4.9 3.7 6.8 6.1 1.9 2.4 3.4 5.1 4.4 8 1 2.8 1.5 5.9 1.4 9 0 13.8-9.5 24-21 26.5zm-546.1-45.8c0 29.3-19.6 51.1-55.5 51.1-30.5 0-60.6-9.1-89.6-23.2v43.7c0 0 46.7 12.7 106.4 12.7 99 0 127.9-37.5 127.9-84.3v-119.6h-89.2c0 0 0 119.6 0 119.6z"/>
</svg>