<svg version="1.2" xmlns="http://www.w3.org/2000/svg" viewBox="0 0 800 800" width="800" height="800">
	<title>logotypes of trucks</title>
	<style>
		.s0 { fill: #000000 } 
	</style>
	<path id="komatsu" fill-rule="evenodd" class="s0" d="m563.4 321.9l-0.1 17.9-36.2 0.1h-36.2v41.6l13.4 0.1 13.3 0.1 0.1 35.2 0.1 35.2h45.9l-0.2-51.7-0.2-51.7h42l-1.7 2c-4.3 5-6.7 9.9-8 15.9-2.7 11.9 1.3 25.2 9.6 33 5.5 5.2 11.3 7.9 24 11.2 5.1 1.4 7.6 2.3 8.9 3.2 1.9 1.3 2.4 5.3 1 7.2-2.4 3.1-9.4 3.1-18.8-0.1-4.1-1.4-11.4-4.8-16.4-7.7-1.9-1.1-3.4-1.9-3.5-1.8-0.1 0.1-11.3 26.6-12.5 29.5-0.2 0.6 9.7 5.9 16.2 8.6 10.5 4.5 19.1 6.4 31 6.7 5.1 0.1 7.4 0.1 10.4-0.3 9.9-1.4 17.8-4.7 25.6-10.9 7.8-6.2 12.7-16.3 13.2-27.2 0.2-5-0.2-8.3-1.5-12.2-1.9-5.6-4.8-10.3-9-14.4-5.2-5.2-11-8.1-23.3-11.3-8.4-2.3-11-3.6-11.8-6-0.7-2.2 0.7-4.9 3.1-5.7 4.4-1.5 14.7 1.5 26.3 7.7 1.7 0.9 3.3 1.6 3.4 1.4 0.3-0.3 12.5-29.3 12.5-29.6 0-0.2-1.3-1.1-3-2.1-9.8-5.6-19.7-9-30.7-10.2-4.9-0.6-15.6-0.3-19.5 0.6-8.1 1.7-15.6 5-21.9 9.7-1.3 1-2.5 1.8-2.5 1.8-0.1 0-0.2-9.8-0.2-21.8l-0.1-21.7-21.3-0.1-21.4-0.1zm-390.4 13.4c-25.8 1.9-47.8 20.8-53.4 45.9-2.4 11.2-1.8 24 1.7 34.5 9.3 27.4 37.4 44.6 65.6 40 26-4.1 45.5-23.9 49.6-50.2 0.8-5.3 0.8-16.3-0.1-21.2-2.3-12-7.4-22.3-15.6-30.9-10.2-10.7-23.4-16.9-38.4-18.1-4.3-0.4-4.3-0.4-9.4 0zm9.6 44.4c8.3 2.5 13.4 11.6 11.4 20.2-1.4 6-6.5 11.2-12.6 12.7-2.3 0.6-6.3 0.6-8.7 0-5.2-1.4-9.9-5.8-11.8-11.3-1-3-1-7.8 0-10.8 3-8.7 12.8-13.5 21.7-10.8zm514.3-2.1c0 33.3 0.1 38.8 0.5 41.7 1.7 11.4 8.3 22 17.5 28.2 7.3 4.8 15.7 7.8 24.8 8.7 4.9 0.5 15.8 0.4 19.7-0.2 8.5-1.2 16.5-4.3 23.9-9.1 8-5.4 12.9-12.6 15.9-23.8l0.6-2.7 0.1-40.5 0.2-40.6h-45.4v36.3l-0.1 36.2-1 1.3c-1.4 2-2.7 2.8-4.8 2.8-2.2 0-3.9-0.9-5.2-2.8l-0.9-1.3-0.1-36.2-0.1-36.3h-45.6zm-696.8 74.5h46.2v-28.3l0.1-28.4 1.1 2.5c0.7 1.4 6.5 14.1 12.9 28.4l11.6 25.8h26.1c14.3 0 26 0 26-0.1 0 0-6-12.4-13.3-27.6-7.3-15-13.5-27.9-13.7-28.5l-0.5-1.2 13.1-27.4 13.1-27.3h-26.1-26.2l-24 53.8-0.1-26.9-0.1-26.9h-46.2zm256.8-112c0 0.3-16.5 110.2-16.7 111.1l-0.2 0.9h41.5l2.8-21.3c1.5-11.7 2.8-21.2 2.8-21.1 0.1 0 10 35.9 11.4 41l0.3 1.4 13.5-0.1 13.5-0.1 5.8-21.2c3.2-11.6 5.8-21.1 5.9-20.9 0 0.3 6 41.6 6 42 0 0.1 19.3 0.3 42.9 0.3h42.9l6.7-26.3c3.7-14.4 6.8-26.2 6.9-26.2 0.1 0 3.1 11.7 6.8 26.1l6.8 26.2 24 0.1c19.1 0.1 23.9 0 23.8-0.3 0-0.2-8.6-25.2-19-55.6-10.4-30.3-19.1-55.4-19.2-55.7-0.2-0.5-1.6-0.5-23.1-0.5h-22.8l-12.8 37.9c-20.1 59.6-22.7 67.4-22.9 67.3-0.1-0.1-15.4-104.1-15.4-104.9 0-0.2-4.4-0.3-21-0.3h-21l-6.9 21.9c-3.7 12.1-6.9 22.2-7 22.4-0.3 0.5 0 1.5-8.5-25.8l-5.7-18.5h-21c-11.6 0-21.1 0.1-21.1 0.2z"/>
</svg>