<?xml version="1.0" standalone="no"?>
<!DOCTYPE svg PUBLIC "-//W3C//DTD SVG 20010904//EN"
 "http://www.w3.org/TR/2001/REC-SVG-20010904/DTD/svg10.dtd">
<svg version="1.0" xmlns="http://www.w3.org/2000/svg"
 width="1462.000000pt" height="651.000000pt" viewBox="0 0 1462.000000 651.000000"
 preserveAspectRatio="xMidYMid meet">

<g transform="translate(0.000000,651.000000) scale(0.100000,-0.100000)"
fill="#ffffff" stroke="none">
<path d="M7305 6274 c-275 -37 -435 -83 -638 -184 -374 -186 -648 -495 -802
-905 -90 -240 -129 -468 -128 -755 1 -394 89 -720 268 -996 73 -112 260 -300
370 -372 396 -261 942 -347 1492 -237 209 42 460 141 595 233 105 72 155 86
228 67 30 -8 60 -15 65 -15 6 0 9 89 7 253 -4 260 5 380 33 476 23 75 99 150
175 173 45 14 223 48 253 48 4 0 7 14 7 30 l0 30 -780 0 -780 0 0 -28 0 -28
113 -11 c245 -25 355 -91 419 -252 20 -50 23 -73 22 -206 0 -134 -3 -158 -26
-227 -39 -116 -92 -204 -173 -284 -88 -87 -185 -146 -307 -187 -88 -29 -102
-31 -248 -31 -132 -1 -167 3 -233 22 -165 47 -300 127 -426 252 -247 245 -392
555 -463 995 -17 108 -17 531 1 650 61 411 226 789 465 1068 139 161 314 273
496 317 110 27 301 37 408 21 320 -47 566 -249 756 -621 61 -118 110 -235 151
-357 26 -78 29 -83 56 -83 28 0 29 1 29 54 0 92 -20 765 -26 894 l-6 122 -28
0 c-25 0 -32 -8 -57 -57 -37 -75 -81 -106 -143 -101 -26 3 -100 29 -170 60
-159 71 -305 122 -428 149 -77 17 -140 22 -307 24 -115 2 -223 1 -240 -1z"/>
<path d="M2133 6163 c-8 -21 -220 -564 -470 -1208 -601 -1546 -605 -1556 -719
-1727 -122 -184 -240 -274 -392 -300 -69 -12 -72 -13 -72 -40 l0 -28 550 0
550 0 0 30 c0 22 -5 30 -18 30 -38 0 -163 38 -205 63 -142 84 -196 251 -148
459 22 97 42 154 187 531 l88 227 537 0 537 0 50 -117 c111 -266 262 -652 277
-708 36 -140 12 -250 -71 -332 -63 -61 -124 -87 -266 -111 -96 -16 -98 -17
-98 -44 l0 -28 805 0 805 0 0 29 c0 28 -3 29 -52 36 -155 20 -270 62 -343 126
-59 52 -142 189 -219 361 -40 90 -318 754 -616 1476 l-544 1312 -68 0 -69 0
-16 -37z m148 -1272 c126 -310 229 -570 229 -578 0 -13 -68 -14 -484 -11 -266
2 -487 6 -491 9 -3 4 101 286 232 628 l238 623 24 -54 c12 -29 126 -307 252
-617z"/>
<path d="M10820 6188 c0 -7 -9 -205 -21 -440 -12 -236 -18 -435 -15 -444 3 -9
15 -14 27 -12 19 3 26 18 49 103 51 191 115 329 204 437 149 180 347 249 801
278 88 5 199 10 248 10 l87 0 0 -1289 c0 -1322 -4 -1488 -39 -1601 -52 -165
-163 -260 -346 -295 -42 -8 -90 -15 -106 -15 -26 0 -29 -4 -29 -30 l0 -30 783
2 782 3 0 24 c0 23 -6 25 -103 42 -62 10 -125 28 -160 45 -108 53 -190 159
-221 287 -25 104 -31 389 -31 1600 l0 1257 103 0 c269 0 555 -31 702 -77 304
-95 464 -279 555 -638 27 -107 29 -110 56 -110 l27 0 -2 80 c-3 120 -30 670
-37 753 l-6 72 -1654 0 c-1317 0 -1654 -3 -1654 -12z"/>
<path d="M4657 3396 c-86 -31 -157 -101 -185 -185 -15 -43 -15 -143 -1 -191
20 -66 78 -131 149 -168 61 -32 70 -34 146 -30 65 3 90 10 126 31 182 106 210
344 57 481 -27 24 -70 51 -96 60 -56 19 -144 20 -196 2z"/>
<path d="M9919 3396 c-129 -46 -201 -146 -202 -281 0 -91 34 -167 101 -225 64
-54 126 -74 217 -68 85 6 140 33 198 97 54 60 70 104 71 196 0 70 -3 86 -29
134 -36 66 -102 125 -162 145 -56 19 -144 20 -194 2z"/>
<path d="M420 2255 c0 -36 1 -65 3 -65 20 -2 13353 -90 13580 -90 l317 0 0 65
c0 36 -1 65 -2 66 -11 2 -13066 88 -13430 89 l-468 0 0 -65z"/>
<path d="M5713 1581 c-51 -13 -83 -39 -104 -84 -15 -35 -19 -66 -19 -192 0
-137 2 -155 23 -195 40 -80 57 -85 317 -85 243 0 264 4 302 56 22 29 40 139
32 187 l-6 32 -169 0 -169 0 0 -30 0 -30 135 0 135 0 0 -39 c0 -108 -29 -121
-262 -120 -95 1 -184 4 -197 8 -13 3 -33 19 -45 34 -18 24 -21 45 -24 160 -7
241 3 250 278 245 216 -3 235 -10 246 -78 6 -38 8 -40 42 -40 l35 0 -6 42 c-7
49 -32 86 -78 113 -31 18 -54 20 -234 22 -110 1 -215 -2 -232 -6z"/>
<path d="M647 1311 c-86 -148 -157 -272 -157 -275 0 -3 17 -6 39 -6 37 0 41 3
73 58 l34 57 214 0 214 0 34 -57 c32 -55 36 -58 73 -58 22 0 39 2 39 5 0 7
-299 516 -312 533 -6 6 -29 12 -52 12 l-41 0 -158 -269z m292 50 c45 -77 81
-142 81 -145 0 -4 -76 -6 -170 -6 -93 0 -170 3 -170 7 0 14 165 291 171 287 4
-2 43 -67 88 -143z"/>
<path d="M1680 1485 l0 -95 -27 17 c-23 15 -49 18 -153 17 -204 0 -230 -23
-230 -200 0 -172 31 -199 227 -199 109 0 124 2 151 22 29 21 30 22 35 3 4 -15
14 -20 36 -20 l31 0 -2 273 -3 272 -32 3 -33 3 0 -96z m-68 -116 c56 -15 71
-50 66 -160 -3 -76 -6 -92 -26 -111 -21 -21 -31 -23 -147 -23 -116 0 -126 2
-147 23 -19 18 -23 36 -26 98 -6 102 10 151 51 169 38 17 176 19 229 4z"/>
<path d="M5050 1478 l0 -101 -26 24 c-24 23 -32 24 -152 24 -202 -1 -232 -23
-240 -179 -4 -78 -1 -99 16 -138 31 -72 61 -83 214 -83 116 0 129 2 157 23 30
22 31 22 31 2 0 -16 7 -20 30 -20 l30 0 0 275 0 275 -30 0 -30 0 0 -102z m-79
-108 c20 -6 44 -19 54 -30 23 -25 32 -139 16 -198 -16 -58 -50 -72 -169 -72
-155 0 -172 16 -172 159 0 96 17 135 63 144 44 9 173 7 208 -3z"/>
<path d="M6390 1305 l0 -275 30 0 30 0 0 275 0 275 -30 0 -30 0 0 -275z"/>
<path d="M7180 1306 l0 -276 30 0 c23 0 30 5 30 19 0 17 3 17 48 -6 43 -22 56
-24 157 -21 181 6 215 38 215 203 0 114 -15 151 -72 181 -48 26 -272 27 -310
2 l-27 -18 -3 93 -3 92 -32 3 -33 3 0 -275z m360 61 c43 -15 59 -54 59 -142 0
-76 -17 -126 -49 -143 -17 -9 -60 -12 -138 -10 -111 3 -114 4 -138 31 -22 25
-24 37 -24 120 0 105 11 131 63 146 46 13 186 12 227 -2z"/>
<path d="M8345 1567 c-3 -7 -4 -129 -3 -272 l3 -260 33 -3 32 -3 0 275 0 276
-30 0 c-17 0 -33 -6 -35 -13z"/>
<path d="M8850 1566 c0 -8 -3 -21 -6 -30 -5 -14 10 -16 129 -16 114 0 136 -2
141 -16 3 -9 6 -119 6 -245 l0 -229 35 0 35 0 0 245 0 245 135 0 135 0 0 30 0
30 -305 0 c-257 0 -305 -2 -305 -14z"/>
<path d="M10650 1304 l0 -275 33 3 32 3 5 146 c3 100 9 151 18 162 36 43 254
48 296 7 7 -7 13 -70 16 -163 l5 -152 33 -3 32 -3 0 151 c0 169 -8 198 -63
227 -24 13 -57 17 -137 18 -120 0 -151 -6 -180 -37 l-20 -22 0 85 c0 113 -5
129 -41 129 l-29 0 0 -276z"/>
<path d="M12435 1567 c-3 -7 -4 -129 -3 -272 l3 -260 33 -3 32 -3 0 275 0 276
-30 0 c-17 0 -33 -6 -35 -13z"/>
<path d="M2450 1419 c-44 -13 -70 -43 -70 -80 0 -25 4 -29 29 -29 23 0 30 6
35 25 9 35 41 45 144 45 154 0 182 -18 182 -116 l0 -45 -31 23 c-29 21 -40 23
-167 22 -143 -1 -192 -12 -206 -49 -11 -30 -6 -116 9 -144 23 -45 57 -53 213
-49 121 3 143 6 161 22 19 17 21 17 21 3 0 -12 9 -17 30 -17 l30 0 0 158 c0
174 -4 188 -63 219 -38 20 -262 28 -317 12z m249 -208 c50 -10 71 -31 71 -71
0 -53 -29 -65 -164 -68 -67 -2 -133 1 -148 7 -55 21 -43 119 17 132 45 10 174
9 224 0z"/>
<path d="M3092 1421 c-18 -5 -44 -19 -57 -31 l-23 -22 -4 24 c-2 17 -10 24
-30 26 l-28 3 0 -195 0 -196 29 0 29 0 4 144 c2 123 6 147 21 164 33 37 169
54 249 32 62 -18 68 -35 68 -198 l0 -143 33 3 32 3 3 140 c2 118 -1 145 -15
174 -32 62 -59 74 -175 77 -57 2 -118 -1 -136 -5z"/>
<path d="M3631 1421 c-94 -24 -115 -60 -116 -196 0 -111 13 -148 62 -181 23
-16 51 -19 158 -22 153 -4 200 7 226 53 38 68 32 111 -14 99 -21 -5 -27 -12
-27 -34 0 -49 -31 -65 -138 -69 -170 -6 -202 18 -202 151 0 86 21 139 60 149
14 4 65 7 113 8 109 1 152 -14 162 -58 5 -26 11 -31 36 -31 23 0 29 5 29 20 0
35 -29 79 -63 97 -36 19 -228 28 -286 14z"/>
<path d="M4175 1421 c-89 -23 -110 -60 -110 -196 0 -121 12 -151 75 -182 38
-20 60 -23 160 -23 63 0 132 5 152 11 51 13 87 47 94 87 6 31 6 32 -28 32 -31
0 -36 -4 -42 -30 -8 -41 -36 -50 -157 -50 -143 0 -189 24 -189 98 0 18 6 32
16 36 9 3 104 6 211 6 l195 0 -4 60 c-5 68 -26 104 -77 134 -26 15 -57 20
-149 22 -65 2 -130 0 -147 -5z m272 -67 c22 -16 29 -31 31 -63 l3 -41 -173 2
c-164 3 -173 4 -176 23 -4 31 30 89 58 97 14 4 71 6 127 5 86 -2 106 -5 130
-23z"/>
<path d="M6693 1420 c-101 -21 -123 -56 -123 -195 0 -82 4 -106 20 -132 35
-59 67 -68 230 -68 127 0 149 2 179 20 57 34 73 65 79 149 8 124 -20 188 -93
216 -38 15 -237 22 -292 10z m249 -51 c52 -14 68 -48 68 -143 0 -95 -11 -123
-55 -141 -40 -17 -229 -21 -270 -5 -35 13 -55 65 -54 142 0 92 16 130 59 145
44 15 202 16 252 2z"/>
<path d="M7845 1420 c-48 -12 -75 -41 -75 -81 0 -25 4 -29 28 -29 21 0 30 7
38 28 13 34 41 42 153 42 91 0 147 -14 161 -40 5 -10 10 -42 10 -70 l0 -51
-31 23 c-28 21 -41 23 -163 23 -186 -1 -216 -18 -216 -121 0 -59 22 -99 61
-113 18 -6 91 -11 164 -11 119 0 135 2 159 21 22 18 26 18 26 4 0 -12 8 -16
33 -13 l32 3 0 152 c0 138 -2 154 -21 180 -11 15 -34 34 -50 42 -35 17 -251
25 -309 11z m290 -224 c18 -12 25 -25 25 -49 0 -64 -30 -77 -183 -77 -138 0
-157 9 -157 74 0 69 19 76 182 71 79 -2 115 -7 133 -19z"/>
<path d="M9619 1419 c-20 -6 -50 -24 -65 -40 -28 -29 -29 -35 -32 -144 -6
-183 18 -207 213 -213 74 -2 138 1 164 8 54 14 101 59 101 94 0 22 -4 26 -30
26 -23 0 -31 -5 -36 -25 -11 -45 -39 -55 -149 -55 -133 0 -172 11 -191 55 -18
45 -18 71 2 79 9 3 103 6 210 6 l194 0 0 51 c0 70 -24 115 -74 141 -34 18 -62
22 -156 24 -63 2 -131 -2 -151 -7z m287 -70 c16 -17 26 -39 27 -60 l2 -34
-165 -2 c-91 -2 -171 1 -179 6 -12 7 -12 15 0 52 19 59 51 70 187 66 95 -2
104 -4 128 -28z"/>
<path d="M10201 1421 c-94 -24 -116 -61 -116 -196 0 -111 13 -148 62 -181 23
-16 51 -19 158 -22 153 -4 200 7 226 53 38 68 32 111 -14 99 -19 -4 -27 -13
-27 -29 0 -13 -9 -33 -19 -46 -17 -22 -29 -24 -117 -28 -172 -6 -204 18 -204
151 0 86 21 139 60 149 14 4 65 7 113 8 109 1 152 -14 162 -58 5 -26 11 -31
36 -31 33 0 36 13 15 65 -22 53 -63 68 -191 71 -60 2 -125 -1 -144 -5z"/>
<path d="M11382 1421 c-18 -5 -44 -19 -57 -31 l-23 -22 -4 24 c-2 16 -10 24
-30 26 -25 3 -27 0 -33 -50 -3 -29 -5 -116 -3 -193 l3 -140 33 -3 32 -3 0 130
c0 71 4 141 10 155 14 37 47 54 122 62 90 9 155 -2 184 -31 23 -23 24 -30 24
-170 l0 -146 33 3 32 3 0 150 c0 164 -6 186 -61 222 -29 19 -205 28 -262 14z"/>
<path d="M11933 1420 c-95 -20 -123 -65 -123 -197 0 -107 17 -147 75 -177 35
-18 58 -21 180 -21 122 0 145 3 179 21 62 32 78 71 74 186 -3 110 -17 140 -82
172 -44 22 -231 32 -303 16z m262 -54 c47 -20 55 -42 55 -145 0 -81 -2 -93
-24 -118 -24 -28 -26 -28 -149 -31 -187 -5 -203 8 -201 161 1 86 19 126 65
138 46 13 218 10 254 -5z"/>
<path d="M12740 1420 c-96 -20 -124 -65 -124 -195 0 -103 13 -138 62 -171 41
-28 113 -38 240 -32 107 4 147 19 186 71 18 24 21 42 21 125 0 167 -39 203
-229 208 -61 2 -131 -1 -156 -6z m252 -51 c52 -14 68 -48 68 -143 0 -95 -11
-123 -55 -141 -40 -17 -229 -21 -270 -5 -35 13 -55 65 -55 145 0 88 19 131 62
144 45 13 205 13 250 0z"/>
<path d="M13325 1421 c-85 -21 -110 -61 -110 -181 0 -157 35 -185 227 -185
117 0 129 2 159 24 l32 24 -5 -58 c-6 -72 -26 -91 -104 -101 -133 -16 -234 9
-234 58 0 14 -8 18 -35 18 -34 0 -35 -1 -29 -27 20 -82 58 -98 229 -98 107 0
137 3 168 19 64 31 71 58 75 250 2 93 1 189 -3 213 -6 41 -9 44 -33 41 -18 -2
-28 -10 -32 -28 l-6 -25 -12 22 c-7 12 -29 27 -50 33 -41 11 -191 12 -237 1z
m272 -74 c24 -24 28 -36 31 -102 4 -71 3 -76 -25 -104 -36 -35 -90 -46 -200
-39 -103 7 -117 21 -122 129 -6 134 13 149 181 146 103 -2 109 -3 135 -30z"/>
<path d="M1820 1413 c0 -8 149 -281 192 -350 16 -28 26 -33 56 -33 l37 0 103
184 c56 100 102 188 102 194 0 7 -13 12 -29 12 -28 0 -35 -10 -122 -166 -79
-143 -93 -164 -103 -148 -6 11 -47 84 -92 164 -75 135 -83 145 -112 148 -18 2
-32 -1 -32 -5z"/>
<path d="M13767 1413 c-2 -5 29 -69 70 -143 41 -74 90 -165 110 -201 l36 -67
-22 -31 c-18 -25 -31 -32 -71 -37 -45 -6 -50 -9 -50 -31 0 -25 1 -25 58 -19
31 4 68 15 82 24 16 11 65 97 142 252 64 129 117 241 118 248 0 7 -13 12 -31
12 -29 0 -33 -5 -113 -172 l-82 -172 -47 87 c-26 48 -68 125 -93 172 -41 76
-49 85 -74 85 -16 0 -31 -3 -33 -7z"/>
</g>
</svg>
