<?xml version="1.0" standalone="no"?>
<!DOCTYPE svg PUBLIC "-//W3C//DTD SVG 20010904//EN"
 "http://www.w3.org/TR/2001/REC-SVG-20010904/DTD/svg10.dtd">
<svg version="1.0" xmlns="http://www.w3.org/2000/svg"
 width="1024.000000pt" height="1024.000000pt" viewBox="0 0 1024.000000 1024.000000"
 preserveAspectRatio="xMidYMid meet">

<g transform="translate(0.000000,1024.000000) scale(0.100000,-0.100000)"
fill="#1a76d1" stroke="none">
<path d="M4884 9110 c-871 -50 -1682 -366 -2339 -911 -220 -182 -510 -493
-679 -727 -765 -1062 -955 -2488 -494 -3711 259 -688 716 -1307 1293 -1751
1033 -795 2328 -1046 3570 -693 898 255 1672 814 2198 1588 375 553 585 1113
674 1800 25 196 25 667 -1 880 -80 672 -288 1241 -648 1778 -581 867 -1499
1473 -2538 1676 -318 62 -717 89 -1036 71z m504 -1521 c457 -49 911 -235 1266
-517 410 -326 734 -852 826 -1340 117 -628 -31 -1213 -401 -1583 -197 -196
-401 -282 -669 -281 -140 0 -243 21 -333 69 -72 38 -185 155 -221 228 -16 33
-31 62 -33 64 -1 2 -31 -23 -65 -55 -166 -158 -387 -270 -600 -304 -110 -18
-321 -8 -423 20 -379 102 -680 392 -798 766 -49 155 -61 244 -61 444 0 202 17
315 70 462 145 403 498 716 904 800 127 27 354 21 475 -12 141 -38 276 -109
391 -207 28 -24 54 -43 56 -43 3 0 11 13 18 30 17 41 81 97 127 109 94 26 185
8 249 -51 77 -71 74 -39 74 -905 0 -549 3 -777 12 -811 15 -59 81 -128 132
-137 44 -9 166 15 230 46 137 64 307 304 370 523 55 187 70 426 41 621 -28
186 -105 427 -188 592 -74 145 -254 372 -397 500 -285 256 -637 419 -1035 478
-145 21 -415 21 -560 0 -562 -84 -1045 -392 -1358 -865 -456 -691 -433 -1620
56 -2265 410 -539 1092 -849 1750 -796 318 26 611 116 868 266 131 77 217 70
302 -25 50 -55 67 -103 67 -186 -1 -124 -53 -181 -262 -283 -363 -178 -778
-263 -1213 -248 -336 12 -607 73 -931 212 -566 242 -1047 743 -1288 1342 -348
867 -133 1905 541 2613 373 393 927 667 1473 729 109 12 425 13 538 0z"/>
<path d="M5010 5900 c-240 -29 -454 -193 -565 -432 -60 -131 -79 -224 -79
-383 0 -162 15 -234 74 -362 71 -153 160 -247 295 -314 258 -127 565 -78 766
121 121 120 191 256 229 438 58 285 -18 570 -200 753 -140 140 -321 203 -520
179z"/>
</g>
</svg>
