<?xml version="1.0" standalone="no"?>
<!DOCTYPE svg PUBLIC "-//W3C//DTD SVG 20010904//EN"
 "http://www.w3.org/TR/2001/REC-SVG-20010904/DTD/svg10.dtd">
<svg version="1.0" xmlns="http://www.w3.org/2000/svg"
 width="1024.000000pt" height="1024.000000pt" viewBox="0 0 1024.000000 1024.000000"
 preserveAspectRatio="xMidYMid meet">

<g transform="translate(0.000000,1024.000000) scale(0.100000,-0.100000)"
fill="#1a76d1" stroke="none">
<path d="M4860 9004 c-1226 -88 -2295 -708 -2964 -1723 -302 -457 -495 -949
-580 -1481 -36 -221 -46 -355 -46 -601 0 -601 126 -1154 385 -1695 484 -1010
1403 -1763 2500 -2049 495 -128 1072 -160 1567 -85 837 127 1591 516 2193
1132 186 189 298 325 434 528 353 522 550 1054 638 1715 22 165 25 676 5 835
-34 275 -97 564 -172 790 -420 1264 -1442 2206 -2739 2524 -147 36 -313 67
-502 92 -110 14 -596 26 -719 18z m431 -1364 c406 -41 770 -208 1053 -480 292
-282 467 -633 521 -1043 53 -412 -25 -775 -296 -1374 -234 -517 -520 -1020
-932 -1638 -223 -335 -347 -505 -390 -533 -80 -53 -191 -38 -259 35 -61 65
-417 588 -615 903 -430 685 -769 1368 -898 1811 -182 625 -61 1244 336 1716
353 420 937 657 1480 603z"/>
<path d="M4970 6725 c-285 -63 -505 -263 -602 -545 -31 -91 -32 -102 -33 -250
0 -180 11 -235 79 -375 165 -338 543 -515 912 -426 498 120 760 670 543 1139
-104 226 -289 384 -524 448 -84 22 -292 28 -375 9z"/>
</g>
</svg>
