<svg version="1.2" xmlns="http://www.w3.org/2000/svg" viewBox="0 0 800 800" width="800" height="800">
	<title>logotypes of trucks</title>
	<style>
		.s0 { fill: #000000 } 
	</style>
	<path id="maz" fill-rule="evenodd" class="s0" d="m413.6 97.6c0.9 0 28.4 67.9 28.4 70.1 0 1 12.2 31.6 27.2 68.3 14.9 36.7 27.1 67.4 27.1 68.5 0 1.6 18.8 1.9 122.5 1.9h122.6l1.4 3.7c13.1 36.6 23.3 66.1 23.3 67.6 0 1 7.6 23.4 17 49.5 9.3 26.3 16.9 48.2 16.9 48.7 0 0.5-6.5 1.9-14.5 3.1-42.2 6.1-132.3 19.5-180.8 26.7-30.2 4.5-73.2 10.9-95.5 14.3-22.4 3.2-53.9 8-69.9 10.3l-29.1 4.5-21-3c-11.6-1.8-33.8-4.9-49.5-7.1-15.6-2.2-67.8-9.5-116-16.3-48.1-6.7-113.3-16-145.1-20.4-77.1-10.9-78.6-11.1-78.6-12.1 0-0.4 2.2-5.8 4.7-12.1 2.6-6.1 4.8-11.9 4.8-12.7 0-1 12.2-30.1 27.1-65 14.9-34.7 27.1-64.1 27.1-65.2 0-1.1 1.2-4.7 2.7-8.2l2.9-6.3 131.8-0.3 131.6-0.4 1-4c0.4-2.3 12.6-33.4 27-69.2 14.4-35.8 26.6-67.2 27.2-69.8 0.6-2.6 6.4-18.2 13-34.9 6.6-16.6 12.3-30.2 12.7-30.2zm0 14.9c-0.9 0-24.3 60.6-25.4 65.4-0.4 1.7-12.9 34.3-27.7 72.4-14.7 38.1-26.9 70.2-26.9 71.4 0 1.3-0.7 3.7-1.7 5.6l-1.5 3.5-124.7 0.3-124.8 0.4-8.5 19.7c-4.7 10.8-8.5 20.4-8.7 21.4 0 0.9-9.5 23.4-21 50-11.6 26.5-20.9 48.4-20.5 48.8 0.6 0.6 151.6 6.3 321.5 12.1l67.8 2.4 180.8-6.9c99.4-3.8 181.1-7.2 181.5-7.6 1-1.1-21.9-72.8-39.4-123l-6-16.9-116.1-0.4c-104.8-0.3-116-0.6-116-2.4 0-1.3-7.8-21.7-17.1-45.7-31.1-79.4-36.1-92.5-37.2-96.9-0.5-2.4-7-19.9-14.3-38.9-7.5-19.1-13.7-34.7-14.1-34.7zm0 23.1c0.8 0 28.6 78.6 28.4 80.9 0 0.8 12.2 35.9 27.2 78 14.9 42 27.1 77.3 27.1 78.5 0 1.2 3.6 12.5 8.1 24.9 4.5 12.5 8.1 23.1 8.1 23.4 0 0.1 34.1 0.4 75.7 0.4 59.5-0.2 75.1-0.4 73.5-1.8-1.1-0.9-5.3-5-9.1-9.2l-7-7.5 6.7-9.5 7-9.3-54.1-0.4-54-0.3-9.9-20.7c-5.4-11.3-9.8-21.1-9.8-21.7 0-0.6 43.4-1 96.3-1 53 0 96.3 0.3 96.3 0.7 0 0.4 2.8 10.3 6.2 22.2l6.2 21.6-6.9 9.3-6.8 9.3 12.5 5.8 12.5 6 7.9 22.6c4.2 12.6 7.7 23.2 7.7 23.7 0 0.4-66 0.8-146.7 0.8h-146.9l-9.9-12.8c-10.5-13.7-11.1-14-17.2-8-2.6 2.5-26.3 19.5-28.5 20.3-1.2 0.5-24.4-13.3-26.4-15.7-0.4-0.6-3.7-2.9-7.2-5.3-5.5-3.8-6.9-4.2-8.4-2.7-0.8 1.1-5.7 6.9-10.7 13l-9.2 11.2h-104.8l-10.8-21.1-10.7-21-3.5 5.9c-1.9 3.4-6.9 12.9-11 21.2l-7.3 15-35.8-0.2-35.7-0.4-7.3-16.3c-3.9-9-7.6-18-8.1-20.2-1.1-5.3-1.8-4.5-15.5 18.4l-11.1 18.7h-27.8c-15.3 0-27.5-0.4-27.2-1 2-3 26-58.9 27.5-63.6 0.9-3.3 6.8-17.4 13-31.6l11.3-25.8h56.9l12.9 23.3c11.8 21.7 12.9 23.1 14.2 20 0.7-1.9 7.8-12.5 15.6-23.4l14.3-19.9 33.2 0.3 33.1 0.4 10.8 55 38-0.8 8.4-21.7c4.7-11.9 8.5-22.7 8.5-24 0.2-1.3 11.7-32.4 25.8-69.1 14-36.8 26.3-69.3 27.2-72.3 0.9-3 6.3-17.9 12-33.2 5.7-15.3 11.2-30.4 12.3-33.6 1.2-3.2 2.5-5.7 2.9-5.7zm0 172.2c-1 0-25.8 58.5-25.8 61.1 0 1.1-1.2 4.6-2.7 7.9l-2.7 6 3.6 3.6c4.6 4.4 25.9 19 27.7 19 1.8 0 27.4-18.6 28.5-20.7 1.7-3-0.6-9.9-14.4-44.1-7.5-18.1-13.8-32.8-14.2-32.8z"/>
</svg>