<svg version="1.2" xmlns="http://www.w3.org/2000/svg" viewBox="0 0 800 800" width="800" height="800">
	<title>logotypes of trucks</title>
	<style>
		.s0 { fill: #000000 } 
	</style>
	<path id="mers" class="s0" d="m586 45c-56-29-119-45-186-45-67 0-130 16-186 45-127 67-214 201-214 355 0 154 87 288 215 355 55 28 118 45 185 45 67 0 129-17 185-46 128-66 215-200 215-354 0-154-87-288-214-355zm-546 355c0-131 70-245 175-309 51-31 110-49 175-51l-45 327-130 101-132 103c-27-51-43-109-43-171zm546 308c-55 33-118 52-186 52-68 0-132-19-186-52-49-29-89-69-119-117l119-49 186-76 186 75 120 49c-30 49-72 89-120 118zm0-240l-129-100-46-328c63 2 123 20 174 51 105 63 175 178 175 309 0 62-15 120-43 171z"/>
</svg>