<?xml version="1.0" standalone="no"?>
<!DOCTYPE svg PUBLIC "-//W3C//DTD SVG 20010904//EN"
 "http://www.w3.org/TR/2001/REC-SVG-20010904/DTD/svg10.dtd">
<svg version="1.0" xmlns="http://www.w3.org/2000/svg"
 width="1024.000000pt" height="1024.000000pt" viewBox="0 0 1024.000000 1024.000000"
 preserveAspectRatio="xMidYMid meet">

<g transform="translate(0.000000,1024.000000) scale(0.100000,-0.100000)"
fill="#000000" stroke="none">
<path d="M4705 8046 c-16 -7 -37 -22 -46 -32 -9 -11 -189 -368 -400 -794 -211
-426 -702 -1413 -1091 -2193 -512 -1025 -708 -1426 -708 -1451 0 -21 8 -40 21
-52 20 -18 42 -19 448 -19 403 0 428 1 454 19 22 15 204 370 848 1659 451 902
832 1657 846 1679 21 31 32 38 52 36 24 -3 85 -120 728 -1403 386 -770 702
-1403 702 -1407 1 -5 -8 -17 -19 -28 -20 -20 -33 -20 -1148 -20 l-1129 0 -20
-22 c-12 -13 -64 -110 -117 -215 -106 -214 -115 -247 -70 -282 l27 -21 1834 2
1835 3 19 24 c10 13 19 34 19 47 0 28 -2182 4399 -2213 4432 -48 52 -49 52
-459 52 -295 -1 -390 -4 -413 -14z"/>
<path d="M5072 5618 c-16 -29 -114 -210 -217 -403 -103 -192 -218 -407 -256
-477 -38 -70 -69 -134 -69 -141 0 -36 17 -37 601 -35 l574 3 3 25 c2 17 -87
192 -280 550 -226 419 -287 526 -305 528 -16 2 -27 -8 -51 -50z"/>
<path d="M3828 3298 c-30 -15 -315 -273 -329 -299 -23 -44 -11 -61 179 -252
103 -104 200 -195 217 -202 42 -19 67 -6 162 86 45 43 98 86 117 95 l33 16 99
-56 c63 -36 145 -71 224 -97 135 -44 162 -57 184 -92 8 -12 27 -83 43 -157 40
-196 8 -180 361 -180 264 0 292 2 312 18 17 14 30 50 56 167 24 104 40 155 55
171 13 14 74 41 158 69 75 26 166 64 202 86 111 67 128 73 163 56 17 -8 75
-53 129 -101 80 -70 105 -86 131 -86 28 0 56 23 234 198 163 158 203 202 202
223 0 27 -56 86 -254 264 l-89 80 -216 0 -216 0 -84 -54 c-258 -165 -463 -226
-766 -225 -191 0 -299 16 -454 66 -128 41 -187 68 -311 147 l-105 66 -205 3
c-148 1 -212 -1 -232 -10z"/>
</g>
</svg>
