<?xml version="1.0" standalone="no"?>
<!DOCTYPE svg PUBLIC "-//W3C//DTD SVG 20010904//EN"
 "http://www.w3.org/TR/2001/REC-SVG-20010904/DTD/svg10.dtd">
<svg version="1.0" xmlns="http://www.w3.org/2000/svg"
 width="1024.000000pt" height="1024.000000pt" viewBox="0 0 1024.000000 1024.000000"
 preserveAspectRatio="xMidYMid meet">

<g transform="translate(0.000000,1024.000000) scale(0.100000,-0.100000)"
fill="#1a76d1" stroke="none">
<path d="M4815 9000 c-799 -63 -1518 -348 -2127 -842 -136 -110 -432 -404
-550 -546 -406 -489 -698 -1108 -817 -1732 -46 -242 -56 -370 -56 -705 0 -327
7 -429 46 -660 88 -525 333 -1108 652 -1554 282 -394 628 -728 1017 -985 190
-126 278 -176 484 -277 534 -262 955 -361 1602 -376 449 -10 835 46 1257 183
499 163 960 425 1362 775 121 105 378 366 461 469 226 277 429 613 562 925
212 499 302 941 302 1489 0 498 -70 883 -246 1353 -244 652 -597 1152 -1130
1597 -577 482 -1280 773 -2104 871 -161 19 -561 27 -715 15z m618 -1255 c522
-57 1023 -267 1402 -588 381 -322 658 -722 808 -1169 199 -589 190 -1212 -25
-1788 -132 -354 -333 -656 -629 -946 -232 -225 -417 -359 -684 -490 -367 -180
-696 -261 -1107 -271 -397 -10 -694 42 -1043 182 -347 139 -599 303 -869 565
-426 413 -692 927 -776 1498 -98 669 69 1378 451 1912 358 502 840 843 1434
1015 97 28 328 70 465 84 141 14 421 12 573 -4z"/>
<path d="M4950 7284 c-150 -18 -281 -40 -375 -64 -513 -130 -972 -457 -1271
-907 -210 -317 -324 -678 -341 -1078 -22 -551 149 -1064 492 -1480 216 -261
447 -442 748 -585 200 -95 372 -148 612 -186 149 -24 445 -24 610 0 379 55
728 199 1017 417 105 80 300 270 385 374 435 537 590 1230 423 1888 -213 839
-910 1466 -1780 1602 -100 15 -444 28 -520 19z m268 -500 c43 -18 97 -66 120
-109 15 -27 18 -99 22 -690 5 -629 6 -661 24 -685 10 -14 211 -185 445 -380
480 -401 476 -396 476 -515 0 -59 -5 -78 -28 -118 -66 -111 -204 -155 -312
-100 -28 15 -905 737 -1004 828 -86 78 -81 23 -81 860 l0 740 24 51 c25 55 75
101 128 121 47 17 143 16 186 -3z"/>
</g>
</svg>
