<?xml version="1.0" standalone="no"?>
<!DOCTYPE svg PUBLIC "-//W3C//DTD SVG 20010904//EN"
 "http://www.w3.org/TR/2001/REC-SVG-20010904/DTD/svg10.dtd">
<svg version="1.0" xmlns="http://www.w3.org/2000/svg"
 width="1024.000000pt" height="1024.000000pt" viewBox="0 0 1024.000000 1024.000000"
 preserveAspectRatio="xMidYMid meet">

<g transform="translate(0.000000,1024.000000) scale(0.100000,-0.100000)"
fill="#000000" stroke="none">
<path d="M4756 7863 c-7 -16 -68 -140 -134 -278 -66 -137 -179 -374 -252 -525
-73 -151 -161 -333 -195 -405 -84 -176 -491 -1013 -835 -1720 -155 -319 -291
-599 -301 -622 l-18 -43 417 0 417 0 244 518 c204 430 618 1309 943 2000 l72
153 24 -47 c13 -26 90 -191 172 -368 147 -320 520 -1116 546 -1168 l15 -28
-233 0 -233 1 -90 197 c-49 108 -114 249 -144 312 l-54 115 -14 -35 c-16 -38
-76 -166 -381 -815 l-198 -420 821 -3 820 -2 98 -203 97 -202 420 -3 421 -2
-20 37 c-10 21 -129 270 -264 553 -135 283 -336 704 -447 935 -371 770 -788
1640 -943 1968 l-60 127 -348 0 -348 0 -15 -27z"/>
<path d="M3915 3924 c-209 -140 -384 -263 -389 -274 -11 -24 20 -78 106 -187
85 -108 270 -291 303 -299 36 -9 57 2 157 85 48 39 91 71 96 71 5 0 33 -17 63
-38 104 -74 199 -124 315 -165 154 -55 155 -57 162 -217 4 -91 9 -126 21 -141
60 -73 671 -71 737 2 15 17 19 44 24 149 6 158 5 156 156 211 111 40 233 105
313 166 24 18 50 33 57 33 7 0 53 -32 101 -71 102 -83 122 -94 156 -85 74 18
417 408 417 474 0 10 -8 26 -17 34 -33 28 -751 508 -761 508 -5 0 -35 -40 -66
-89 -175 -277 -460 -423 -791 -408 -137 7 -218 27 -343 87 -147 70 -258 172
-357 324 -30 47 -61 86 -68 85 -6 0 -183 -115 -392 -255z"/>
</g>
</svg>
