<svg version="1.2" xmlns="http://www.w3.org/2000/svg" viewBox="0 0 800 800" width="800" height="800">
	<title>logotypes of trucks</title>
	<style>
		.s0 { fill: #000000 } 
	</style>
	<path id="case" fill-rule="evenodd" class="s0" d="m717.3 286h40.7l-3.3 13.1-3.4 13.4-20.3 0.8c-17 0.6-20.4 0.3-19-3.3 0.8-2.2 2.5-8.7 3.6-14zm-542.7 38c14.2 6.7 18.7 13.6 20.1 30.4l1.1 15.3h-21.2c-20.3 0-21.2-0.3-21.2-6.4 0-3.6-2.5-8.9-5.6-11.7-12-10.9-38.7 3.3-45.1 24-2.8 9.7-2.6 12 2.5 18.6 7.5 10.1 23.4 11.8 34.5 3.7 6.5-4.8 12-5.9 29.1-5.9 11.9 0 20.9 1.1 20.9 2.8 0 5.9-21.5 26.2-32.7 31.2-15.9 7-41.5 9.2-59.1 5.1-24.8-5.9-39.3-22.6-39.3-45.5 0-30.7 23.4-57.4 57.7-66.1 14-3.3 46.9-0.8 58.3 4.5zm273 1.1c11.8 5.6 18.2 14.8 18.2 25.1 0 5-2 5.6-19.6 5.6-16.7 0-20-0.9-26.2-7-7.5-7.5-13.9-8.7-25.1-4.2-12 4.5-8.6 10.6 8.1 15.3 8.4 2.3 22.3 6.2 30.7 8.4 21.2 5.9 27.6 12.8 25.7 27.1-2.8 21.7-24.6 35.4-60.3 37.6-38.7 2.8-67.2-11.1-67.2-32.9v-8.1h20.9c12 0 20.9 1.1 20.9 2.8 0 1.4 2.5 5.3 5.6 8.4 6.7 6.7 24.3 7.5 32.4 1.6 7.5-5.5 3-8.9-20.1-15.6-36-10.3-48.5-19.2-48.5-35.1 0-14 17.3-28.5 42.1-34.9 14.8-3.6 49.3-0.5 62.4 5.9zm-190.4-3.1l50.7 1.7 9.2 51.6c5 28.4 9.2 52.4 9.2 53.5 0 1.4-10 2.3-22.3 2.3-21.5 0-22.3-0.3-24-7-1.6-6.7-2.5-7-23.7-7-20.3 0-22.3 0.6-26.5 7-4.2 6.4-6.1 7-27.9 7-12.8 0-23.4-0.6-23.4-1.4 0-1.7 53.8-75.6 70.6-97.1zm19.5 51.9l-2-19.5-13.3 19.5-13.2 19.5 14.3 0.8c7.8 0.6 14.8 0.6 15 0 0.6-0.5 0.3-9.7-0.8-20.3zm214.5-51.6h57.1c31.3 0 56.9 0.8 56.9 1.7 0 0.8-1.4 6.9-3 13.9l-3.1 12.3h-37.4c-20.9 0-37.4 1.1-37.4 2.5 0 1.4-0.8 4.5-1.6 7-1.4 3.9 2.5 4.4 33.7 4.4h35.4l-1.9 9c-1.1 5-2.5 10-3.4 11.1-0.5 1.4-16.7 2.2-35.7 2.2-28.7 0-34.5 0.9-35.9 4.5-4.5 11.7-3.4 12.3 34.3 12.3h35.9l-3.3 13.1-3.3 13.4-58.1 0.8c-54.3 0.6-57.7 0.3-56.3-4.2 0.8-2.8 5.3-20.6 10-39.9 4.8-19.2 10.6-41.5 12.9-49.6zm184.9 0h20.6l-3.9 14.5c-2.2 8.1-3.3 17.8-2.5 21.8 1.7 8.3-4.7 31.5-10.3 37-2.2 2.3-5.6 11.2-7.5 19.8l-3.4 15.7h-41l13.7-52.5c7.5-28.7 13.6-53 13.6-54.4 0-1.1 9.2-1.9 20.7-1.9zm51.9 0c10.8 0 19.5 0.8 19.5 1.9 0 1.4-5.9 25.7-13.1 54.4l-13.4 52.5h-39.9l13.7-53.3c7.5-29.3 13.6-53.8 13.6-54.4 0-0.5 9-1.1 19.6-1.1zm33.7 0h19.5c17.3 0 19.5 0.6 18.7 4.7-0.5 2.8-6.4 27.4-13.4 54.4l-12.2 49.7h-20.7c-18.1 0-20.3-0.6-19-5.1 6.2-21.2 7.6-29.2 4.8-30.9-3.4-2.2 4.7-33.8 9.8-37.9 1.9-1.7 5.5-10.1 8-19zm-716.1 128.3h360.8c262.7 0 360.6 0.8 360.6 3 0 1.7-3.3 16.2-7.5 32.1l-7.5 29h-376c-206.6 0-375.9-0.5-375.9-1.4 0-0.5 10.3-15 22.9-32zm344.4 13.9c-1.4 0-5.9 7.3-9.8 15.9-3.6 8.9-7.5 17-8.3 18.1-0.6 1.4 0.8 2.3 3 2.3 2.3 0 5-2.6 5.9-5.6 2.5-7.5 13.7-7.3 19 0.5 7.5 11.8 7.8 3.4 0.2-14.2-4.2-9.2-8.6-17-10-17zm41.5 0.6c-17.5-1.4-27.3 15-17 29.5 3.4 4.8 7 6.2 16.8 6.2 12.2 0 12.2 0 12.2-9.8 0-7.8-1.1-9.8-5.3-9.8-3 0-6.4 1.2-7.2 2.8-0.9 1.4 0.3 2.8 2.5 2.8 2.5 0 4.5 2 4.5 4.2q0 4.2-8.4 4.2c-10.6 0-15.9-8.7-11.4-18.7 2.7-6.1 4.7-7 14.2-5.9 7 0.6 10.9 0 10.3-1.9-0.6-1.4-5.6-3.1-11.2-3.6zm31.6-0.6h-8.4v18.1c0 10.3 1.1 18.2 2.8 18.2 1.7 0 2.8-4.2 2.8-9.2l0.2-9 8.1 9c10.4 11.4 16.5 11.9 8.4 0.8-4.5-6.1-5.3-9.5-3.1-13.1 1.7-3.1 1.7-6.7 0-9.8-1.6-3-5.8-5-10.8-5zm27.8 0c-1.6 0-2.7 7.8-2.7 18.1 0 10.3 1.1 18.2 2.7 18.2 1.7 0 2.8-7.9 2.8-18.2 0-10.3-1.1-18.1-2.8-18.1zm33.8 0c-8.7 0-12.3 1.7-16.7 7.3-3.4 4.1-5.9 8.9-5.9 10.8 0 2 2.5 6.7 5.9 10.9 4.4 5.6 8 7.3 16.7 7.3 7.2 0 10.9-1.2 10.9-3.7q0-3.7-8.4-2.5c-10 1.4-16.7-3.3-16.7-12 0-8.6 6.7-13.4 16.7-12q8.4 1.3 8.4-2.5c0-2.5-3.7-3.6-10.9-3.6zm22 0c-4.7 0-3.3 27.1 1.7 31.8 6.4 6.7 19.5 5.6 24.5-1.7 5.9-8.1 6.2-30.1 0.6-30.1-3.1 0-4.5 4.2-5 14.5-0.9 13.1-1.7 14.8-7.6 15.6-8.3 1.4-11.4-3.3-11.4-18.4 0-6.4-1.1-11.7-2.8-11.7zm41.9 0c-1.7 0-2.8 7.8-2.8 18.1v18.2h11.1c6.2 0 11.2-1.4 11.2-2.8 0-1.7-3.6-2.8-8.4-2.8-8.4 0-8.4-0.3-8.4-15.4 0-8.3-1.1-15.3-2.7-15.3zm32 0c-8.3 0-15.3 1.1-15.3 2.8 0 1.4 2.8 2.8 6.4 2.8 5.9 0 6.1 1.1 5.3 15.3-0.8 12.6-0.3 15.4 3.4 15.4 3.6 0 4.4-3.1 4.4-15.4 0-13.4 0.6-15.3 5.6-15.3 3.1 0 5.6-1.4 5.6-2.8 0-1.7-7-2.8-15.4-2.8zm24.9 0c-6.2 0-5.3 25.7 1.1 31.5 6.4 5.9 18.4 6.2 24 0.3 5-4.7 6.4-31.8 1.6-31.8-1.4 0-2.8 5.3-2.8 11.7 0 15.1-3 19.8-11.4 18.4-5.9-0.8-6.7-2.5-7.5-15.6-0.6-10.3-2-14.5-5-14.5zm45.7 0c-7.8 0-7.8 0-7.8 18.1 0 10.3 1.1 18.2 2.8 18.2 1.6 0 2.8-3.1 2.8-7 0-9.2 5.3-8.9 12.8 0.5 8.4 10.4 11.7 6.2 3.9-4.4-3.4-4.8-4.7-8.7-3.1-8.7 4.2 0 3.9-9.2-0.3-13.4-1.9-1.9-6.9-3.3-11.1-3.3zm38.2 0h-9.8v36.3h11.5c6.7 0 10.6-1.2 9.5-2.8-0.9-1.7-4.8-2.8-8.7-2.8-4.7 0-6.7-1.4-6.7-5.6 0-4.2 2-5.6 7-5.6 3.9 0 7-1.4 7-2.8 0-1.6-3.1-2.8-7-2.8-4.5 0-7-1.6-7-4.1 0-2.5 2.5-4.2 7-4.2 3.9 0 7-1.4 7-2.8 0-1.7-4.5-2.8-9.8-2.8zm-338.6 12.8c3.9 2.3 2.8 6.7-1.6 6.7-2.6 0-3.4-1.6-2.6-4.2 1.2-2.2 2.8-3.3 4.2-2.5zm73.7 1.1c-2.4 0-4.2-1.8-4.2-4.1 0-2.3 1.8-4.2 4.2-4.2 2.3 0 4.1 1.9 4.1 4.2 0 2.3-1.8 4.1-4.1 4.1zm229.2-7.8c7 1.4 7.8 7.8 1.1 7.8-3.3 0-5.8-1.6-5.8-4.4 0-2.5 1.9-3.9 4.7-3.4z"/>
</svg>