<svg version="1.2" xmlns="http://www.w3.org/2000/svg" viewBox="0 0 800 800" width="800" height="800">
	<title>logotypes of trucks</title>
	<style>
		.s0 { fill: #000000 } 
	</style>
	<path id="cat" class="s0" d="m492.3 167.9h-138.3l-80.7 361.6 150.1-121.1 156.5 131.1zm-95.6 217.3l26.7-136.6 26.6 136.6zm26.8 54.6l-250.3 202.4h491.8zm376.6-272.4v92.4h-68.9v381.6h-29.4l-81.2-68v-313.6h-68.5v-92.4zm-571 394.8c18.3-15.2 21.4-34.1 21.4-51v-71.1h-99.3v96.5c0 3.2-0.6 6.5-1.9 9.5-1.2 3.1-3.1 5.8-5.4 8.1-2.3 2.4-5.1 4.2-8.1 5.5-3 1.2-6.3 1.9-9.5 1.9-13.8 0-24.1-11.2-24.1-25v-273.4c0-13.8 10.3-25 24.1-25 3.2 0 6.5 0.7 9.5 1.9 3.1 1.3 5.8 3.1 8.1 5.4 2.3 2.4 4.2 5.1 5.4 8.1 1.3 3.1 1.9 6.3 1.9 9.6v97.1h99.2v-100.7c0-55.7-36.4-101.5-125-101.6-90.9 0-125.3 46-125.3 101.7v285.4c0 55.2 43.8 96.9 99.8 96.9h30.7z"/>
</svg>