<svg version="1.2" xmlns="http://www.w3.org/2000/svg" viewBox="0 0 800 800" width="800" height="800">
	<title>logotypes of trucks</title>
	<style>
		.s0 { fill: #000000 } 
	</style>
	<path id="cummins" class="s0" d="m389.4 1.7c-41 3.2-91.5 13.7-125.3 26-22.5 8.3-60.3 27.3-79.8 39.9-22.3 14.8-44.8 33.1-64.9 53.1-59.8 59.2-98.1 136.7-112 226.2-3.5 22.5-4 79-0.8 100.5 9.3 64.7 30.2 121 64.3 172.7 15.3 23.3 28.5 39.3 48.5 59.1 58.4 57.9 125.9 93.7 208.2 110.3 46.4 9.4 40.9 9.2 263.4 9.9l204.7 0.6v-148.2-148.1h-169.8c-175 0-194.8-0.7-218.1-6.5-35.7-8.9-62.1-32.7-74.3-66.7-3.7-10.1-4.1-14.1-4.1-30.6 0-16.5 0.4-20.4 4.1-30.5 10.8-30.1 32.9-52.5 62.4-63.1 25.3-9.2 20.4-9 218.1-9.6l181.7-0.7v-147.9-148.1h-41.7-41.7l-12.2 7.8c-11.4 7.1-12.6 7.6-17.1 6-10.1-4-23.1 8.8-16.4 16.3 4.1 4.6 7.4 4.1 25.2-4.3 24.3-11.4 38.1-10.4 46 3.5 5.4 9.5 6.1 14.3 3.2 24.2-4.9 17-31.2 37.1-51.5 39.5-9.2 1.1-19.8-2.2-25-7.9l-3.3-3.7 13.3-8.4c11.1-7 13.8-8.1 16.5-6.6 4.4 2.3 10.6 2.2 15.8-0.7 4.8-2.3 6.5-5.2 6.5-10.9 0-9.2-9-9.5-26.9-0.8-22.4 10.8-33 10-42.6-3.3-11-15.1-6.2-33.6 11.5-45.6l7.6-5.1-127.9 0.2c-70.5 0.1-135.9 0.9-145.6 1.5zm229.8 43.6c3 1.4 7.9 5.5 10.8 9.2 7.6 9.2 36.4 56.4 35.1 57.5-0.4 0.5-6.8 4.7-13.9 9.3-10 6.4-13.6 7.9-14.9 6.5-0.9-1.1-7.9-11.7-15.5-23.7-14.3-22.2-18.1-26.5-24.1-26.5-5.5 0-11.7 5.9-11.7 11.3 0 5.8 1.9 9.5 17.6 34 6.8 10.9 12.5 20.1 12.5 20.4 0 1.1-26.5 18.3-28.2 18.3-1.4 0-49.4-75-49.4-77 0.1-0.8 6.3-5.2 13.8-10 10.4-6.5 13.9-7.9 14.9-6.3 0.6 1.2 2.3 3.6 3.6 5.3 2.4 3.2 2.4 3.2 2.5-0.7 0.2-10.7 10.8-23.8 22.5-28.1 7.6-2.7 18.2-2.4 24.4 0.5zm-108.8 22.2c3.5 5.7 6.5 10.7 6.5 11.4 0 1.2-26 17.7-27.9 17.7-1.4-0.1-13.8-19-13.9-21.4-0.2-1.2 25.6-18.2 27.7-18.2 0.6 0 4 4.8 7.6 10.5zm27.4 42.9c6.5 10.3 17.6 27.7 24.7 38.8l12.8 20-14.2 9c-8.1 5.1-14.9 8.5-15.7 7.7-0.8-0.7-12-18.2-25-38.6l-23.8-37.2 13.8-9.1c7.4-4.9 14.1-9 14.6-9 0.4-0.1 6.3 8.3 12.8 18.4zm-50.2 20.3c2.7 1.4 7 4.4 9.2 6.8 6.3 6.6 37.8 57.6 36.4 58.7-3.9 3.4-27.1 17.6-28.3 17.6-0.8-0.1-7.5-9.8-14.9-21.7-7.5-11.9-15.2-23.6-17.1-26.1-7.5-8.7-20.6-3.5-18.9 7.6 0.5 2.8 7.8 16 16.2 29.1 8.5 13.2 15.2 24.3 14.9 24.4-3.8 3.5-29 18.4-29.7 17.6-0.6-0.5-8.2-12.2-17.1-25.8-17.7-27.7-20.9-30.4-28.8-24.6-8.1 6.1-7 10.2 10.6 37.6 8.9 13.6 16 25.3 16 25.9-0.1 1.3-26.3 17.8-28 17.8-1.1-0.2-47.7-72.2-49.3-76-0.3-0.8 5.7-5.4 13.3-10.3 10.5-6.8 14.1-8.4 15.1-6.8 0.6 1.1 2.2 3.4 3.6 5.2 2.2 3 2.4 3 3.2-1.6 0.6-2.7 2.7-7.9 4.7-11.9 5-9.6 17.5-16.4 27.9-15.3 4 0.3 8.3 1.2 9.7 1.7 2 1 3-0.3 4.4-6.7 3.8-15.2 17.1-25.6 33.1-25.6 4.8 0 10.9 1.1 13.8 2.4zm-141.3 88.5c2.9 1.1 7.3 4.3 10 6.8 4.6 4.8 37.7 56.1 37.5 58.5-0.1 0.6-6.6 5.2-14.5 10.4l-14.5 9.2-7.2-11.4c-24-37.4-26.5-40.9-30.3-41.8-8.1-2.1-14.7 5.4-12.5 14.1 0.5 1.9 7.1 13.4 14.9 25.6 7.6 12.2 14.4 23 15 24 1 1.5-25.2 19.6-28.3 19.6-0.8 0-8.4-10.9-16.8-24.4-8.6-13.3-16.6-25.2-17.9-26.3-5.2-4.3-13.9-1.4-16.6 5.6-1.8 4.5 0.8 9.6 17.2 35.3 8.1 12.5 14.4 22.9 14.1 23.1-0.1 0.3-6.6 4.6-14.4 9.5l-13.8 8.9-6.9-10.8c-26.2-40.5-42.2-65.9-42.2-67 0-1.3 24.4-17.3 26.5-17.3 0.8 0 2.7 2.4 4.4 5.1l3 5.2 1.9-7.3c2.4-9.8 6.2-15.8 12.5-20.1 8-5.5 15.9-7.3 24-5.2 3.6 1 7.1 1.7 7.6 1.7 0.3 0 1.1-2.8 1.7-6.3 3.2-18.7 27.9-32.1 45.6-24.7zm-114.7 117.1c13.2 20.7 24 37.8 24 38.1 0 0.5-20 13.6-26.5 17.3-0.9 0.6-3-1-4.9-3.8l-3-4.9-1.7 6.9c-2.7 10.3-8.1 17.3-17.6 22.2-14.6 7.6-28.5 5.2-38.5-6.5-2.7-3.3-12.2-17.6-21.1-31.8l-16.3-26 14.3-9.3c7.9-5.1 14.7-8.9 15.2-8.4 0.3 0.4 7.2 10.9 15.2 23.3 16.1 25 20.7 29.7 27.2 27.4 2.4-0.8 5.7-3.4 7.5-5.7 4.5-6.1 2.8-10.5-13.7-36.5-7.6-11.7-13.7-22-13.7-22.8 0-1.9 27.5-19.5 28.6-18.2 0.5 0.5 11.7 17.9 25 38.7zm-125.9 4.7l8.9 13.8-17.9 11.5c-19.3 12.7-25.5 18.7-28 27.8-2.2 8.2-1.9 12.8 1.4 20.1 5.5 12.3 16.9 18.3 29.8 15.8 7.3-1.3 14.2-4.7 31.3-15.8 7.5-4.8 14-8.7 14.6-8.7 0.8 0 4.4 5.2 8.4 11.4 12.8 20.4 14.1 16.4-10.8 32.3-24.2 15.5-35.3 20.7-48 22.2-11.1 1.2-29.1-2.6-38.6-8.1-9.4-5.6-20.9-18.6-26-29.3-3.6-7.8-4.1-10.6-4.1-26.2 0-32.6 8.1-44.8 45.9-68.9 12.2-7.7 22.7-13.6 23.2-12.9 0.6 0.6 5 7.2 9.9 15z"/>
</svg>