<svg version="1.2" xmlns="http://www.w3.org/2000/svg" viewBox="0 0 800 800" width="800" height="800">
	<title>logotypes of trucks</title>
	<style>
		.s0 { fill: #000000 } 
	</style>
	<path id="daf" class="s0" d="m655 426h-88.1v-135.3h233.1v39.5h-145v24.1h142.5v38.2h-142.5zm-250.4-101.3l-61 101.7h-84.9l80.4-135.7h130.8l80.8 135.7h-178.8l21.4-35.4h51.1zm-404.5 101.4v-134.8h166.3c54 0 92.5 24.6 92.5 66.5 0 39.9-30.5 68.3-94 68.3zm133.6-34.4c20.7 0 32.8-17.7 32.8-31.2 0-13.8-10.8-29.9-32.2-29.9h-45.3v61.1zm-133.8 66h797.6v51.5h-797.6z"/>
</svg>