<svg version="1.2" xmlns="http://www.w3.org/2000/svg" viewBox="0 0 800 800" width="800" height="800">
	<title>logotypes of trucks</title>
	<style>
		.s0 { fill: #000000 } 
	</style>
	<path id="johndeere" class="s0" d="m400 39.2c-115.3 0-232.8 24.8-343.2 78.2-39 93.4-56.8 189.5-56.8 283.3 0 93.5 17.5 188.6 56.5 282.8 111 53.7 228.1 78.3 343.5 78.3 115.5 0 232.6-24.6 343.4-78.3 39-94.2 56.6-189.3 56.6-282.8 0-93.8-17.8-189.9-56.8-283.3-110.4-53.4-227.9-78.2-343.2-78.2q0 0 0 0zm0 30.5c113.9 0 223.2 25.2 319 70.2 32.4 81 50.1 168.9 50.1 260.8 0 91.7-17.6 179.5-49.8 260.3-96 45-205.3 70.3-319.3 70.3-114 0-223.4-25.3-319.3-70.3-32.2-80.8-49.9-168.6-49.9-260.3 0-91.9 17.7-179.8 50.1-260.8 95.9-45 205.1-70.2 319.1-70.2zm-0.1 22.9c-104.2 0-207.9 22.3-300.7 64.1-30 78-45.3 160-45.3 244 0 83.8 15.3 165.6 45.1 243.5 92.8 42 196.6 64.1 300.9 64.1 104.4 0 208.2-22.1 301-64.1l0.1-0.1c-20.2-33.2-47.3-60-47.6-60.2-0.3-0.2-5.6-1.8-5.6-1.8-57.5-17.7-95.2-31-111.8-39.6-22.9-11.9-47-40.8-49.7-44.1-26.8-2-49.1-1.5-70.5 1l-13.6 1.8c-26 3.4-52.8 6.9-79.1 2.7-17.5-2.9-34.5-8.5-52.5-14.3-27.7-9.1-56.1-18.4-88.6-18.4h-1.3l0.6 1.2c7.3 14.3 36.5 57.9 73 69.8 8 2 13.9 4.1 16.4 6.1 0 0.1 14 28.5 17.8 36.2-22.7-10.3-93-46-149.7-115v-0.1c0-0.9-1.4-14.3-1.7-17.3 33.7-12.6 109.7-19.9 118.3-20.7l0.6-0.1 0.3-0.6c4.5-40 14-72 31.7-107.1 0.5-1 0.8-2 0.8-2.8q0-0.3 0-0.5 0-0.2-0.1-0.4 0-0.2-0.1-0.4-0.1-0.3-0.2-0.5c-1-1.8-3.4-2.2-3.5-2.2l-51.7-9q-0.7-2.2-1.4-4.3-0.7-2.1-1.4-4.3-0.7-2.1-1.4-4.2-0.7-2.2-1.4-4.3c37.2-13.9 83.2-26.9 109.5-32.6 4.5-7.1 5.7-10.9 5.7-15.6 0-3.9-1.9-7.3-5.7-9.9-18.6-12.6-77.4-5-136.8 17.8-0.1-0.2-0.1-0.3-0.3-0.5 12.4-9.3 34.4-23 50.8-30.6l0.6-0.3-0.2-0.7c-4.4-15-33.5-26.5-36.7-27.7 0-0.5 0.1-0.8 0.2-1.2 29.5-2 49 11.8 55 21.6l0.3 0.5 0.6-0.2c3.8-1.2 17.1-5.4 31.5-7.1l0.9-0.1-0.2-0.8c-4.8-25.3-28.9-42.2-37.1-47.3 0.2-0.4 0.3-0.6 0.5-0.8 28.5 2.2 54.8 26.7 60.7 47.4l0.2 0.6 0.6 0.1c7.6 0.2 16.9 1.1 23.1 2.1l0.7 0.1 0.2-0.5q0.9-2.1 1.5-4.2 0.7-2.1 1.1-4.3 0.4-2.1 0.6-4.3 0.3-2.2 0.2-4.5c0-18.6-10.5-38.6-23.5-51.3 0.3-0.4 0.4-0.7 0.7-1 37.4 14.2 47 41.2 47 66.3 0 17.6-4.7 34.3-7.7 45l-1.3 4.4 58.9-7.1c-5.6 7.1-17.7 19.7-41.9 33 0-0.1-24.8-3.1-24.8-3.1l-0.7-0.1-0.2 0.6c-1.7 5.1-16.2 51.1-16.3 84.9 0 12.6 3.6 22.3 10.6 29 12.4 12 33.1 12.7 47.5 12.1 61.3-2.2 109.2 1.5 142.4 11.4l2 0.5 0.3-0.5c2.1-3.1 3.7-9 3.7-16.8 0-14.8-5.9-36.9-25.9-61.9 0.2-0.2 0.2-0.3 0.5-0.5 3.3 1.8 57.1 32.4 64.3 78.5-1.3 0.5-25.8 10.5-25.8 10.5l0.8 0.8c22.8 23.8 30.6 52.6 36.9 75.6 5 18.3 11 29.9 18.9 36.8 9.2 7.9 44 24.5 54.5 29.4 8.7 12.4 23.6 35.5 34.4 53.4q8.9-26.1 15.5-52.9 6.7-26.8 11.2-54.1 4.5-27.2 6.7-54.8 2.2-27.5 2.2-55.1c0-84-15.3-166-45.3-244-92.7-41.8-196.5-64.1-300.8-64.1z"/>
</svg>