<svg version="1.2" xmlns="http://www.w3.org/2000/svg" viewBox="0 0 800 800" width="800" height="800">
	<title>logotypes of trucks</title>
	<style>
		.s0 { fill: #000000 } 
	</style>
	<path id="man" class="s0" d="m0 579.4c0-222.3 179.1-402.4 400-402.4 220.9 0 400 180.2 400 402.4q0 22.5-2.4 44.3h-44.9c1.8-14.5 2.7-29.3 2.7-44.3 0-197.4-159.1-357.5-355.4-357.5-196.3 0-355.4 160.1-355.4 357.5q0 22.5 2.7 44.3h-44.9q-0.6-5.5-1-11-0.5-5.6-0.8-11.1-0.3-5.6-0.4-11.1-0.2-5.6-0.2-11.1zm366-81h68.3l81 125.3h-68.4l-8.8-13.7h-75.9l-8.8 13.7h-68.5zm34.2 52.3l-15.3 23.7h30.6c0 0-15.3-23.8-15.3-23.7zm-325.6-52.3h61l40.7 40.9 40.7-40.9h61v125.2h-65.8v-46l-35.9 36.1-35.8-36.1v46h-65.9c0 0 0-125.2 0-125.2zm447.4 0h64.2l72.3 54v-54h65.9v125.2h-64.8l-71.8-53.5v53.5h-65.9z"/>
</svg>