<?xml version="1.0" standalone="no"?>
<!DOCTYPE svg PUBLIC "-//W3C//DTD SVG 20010904//EN"
 "http://www.w3.org/TR/2001/REC-SVG-20010904/DTD/svg10.dtd">
<svg version="1.0" xmlns="http://www.w3.org/2000/svg"
 width="1024.000000pt" height="1024.000000pt" viewBox="0 0 1024.000000 1024.000000"
 preserveAspectRatio="xMidYMid meet">

<g transform="translate(0.000000,1024.000000) scale(0.100000,-0.100000)"
fill="#1a76d1" stroke="none">
<path d="M4920 9050 c-979 -48 -1888 -436 -2573 -1100 -543 -525 -921 -1210
-1086 -1967 -221 -1013 -33 -2059 530 -2942 315 -493 767 -934 1268 -1238 150
-91 460 -242 631 -307 726 -275 1502 -339 2250 -185 654 135 1254 427 1755
855 750 639 1225 1513 1356 2488 26 198 36 561 20 761 -83 1055 -552 1999
-1326 2675 -362 315 -760 550 -1229 725 -323 120 -783 214 -1126 230 -255 11
-319 12 -470 5z m2222 -1891 c47 -24 75 -64 89 -128 9 -42 6 -79 -16 -228
-137 -934 -296 -1885 -516 -3103 -76 -426 -93 -504 -119 -557 -32 -65 -86
-119 -148 -149 -46 -22 -155 -30 -208 -15 -37 10 -492 329 -1214 852 -80 58
-209 152 -288 208 -164 119 -182 143 -182 241 0 33 6 75 14 93 12 31 180 210
751 803 432 449 660 694 683 736 28 51 28 72 1 99 -38 38 -81 22 -271 -102
-249 -163 -906 -604 -1093 -734 -336 -234 -820 -543 -862 -551 -19 -4 -53 -4
-76 -1 -23 2 -255 82 -516 176 -497 179 -523 191 -536 252 -8 36 10 94 41 135
26 36 7 26 719 361 773 364 1129 526 1760 803 66 29 257 118 425 197 168 80
373 176 455 213 714 326 886 404 925 416 54 16 130 9 182 -17z"/>
</g>
</svg>
