<?xml version="1.0" standalone="no"?>
<!DOCTYPE svg PUBLIC "-//W3C//DTD SVG 20010904//EN"
 "http://www.w3.org/TR/2001/REC-SVG-20010904/DTD/svg10.dtd">
<svg version="1.0" xmlns="http://www.w3.org/2000/svg"
 width="1024.000000pt" height="1024.000000pt" viewBox="0 0 1024.000000 1024.000000"
 preserveAspectRatio="xMidYMid meet">

<g transform="translate(0.000000,1024.000000) scale(0.100000,-0.100000)"
fill="#1a76d1" stroke="none">
<path d="M4745 9099 c-977 -91 -1847 -505 -2517 -1198 -614 -634 -977 -1414
-1084 -2326 -27 -229 -25 -695 5 -910 117 -862 464 -1596 1057 -2240 201 -219
511 -472 792 -647 521 -325 1089 -523 1707 -594 210 -24 635 -24 840 0 569 66
1109 241 1581 511 303 174 568 378 835 644 595 595 990 1365 1118 2181 39 252
46 342 45 625 0 379 -29 629 -114 970 -76 309 -156 523 -302 815 -105 210
-183 339 -320 533 -443 623 -1082 1110 -1828 1394 -336 127 -710 210 -1095
243 -140 12 -590 11 -720 -1z m-926 -1610 c52 -29 67 -52 189 -289 55 -107
174 -328 264 -491 91 -163 170 -311 176 -329 18 -50 14 -129 -8 -178 -12 -27
-82 -106 -193 -220 -184 -188 -209 -220 -227 -293 -23 -90 31 -233 157 -424
241 -365 807 -914 1170 -1136 125 -76 176 -93 264 -87 114 9 159 37 391 246
123 111 200 153 279 153 30 0 66 -4 82 -10 15 -6 124 -65 243 -131 118 -66
326 -178 462 -247 280 -143 314 -164 370 -229 53 -59 66 -100 60 -188 -8 -120
-86 -250 -256 -428 -206 -214 -419 -334 -652 -369 -113 -16 -338 -6 -464 21
-350 75 -846 305 -1246 578 -441 300 -905 741 -1261 1197 -199 255 -424 614
-544 868 -180 382 -241 665 -217 998 13 173 32 250 92 369 56 111 125 203 246
329 172 180 313 281 430 310 60 15 147 6 193 -20z"/>
</g>
</svg>
