<svg version="1.2" xmlns="http://www.w3.org/2000/svg" viewBox="0 0 800 800" width="800" height="800">
	<title>logotypes of trucks</title>
	<style>
		.s0 { fill: #000000 } 
	</style>
	<path id="scania" class="s0" d="m400 20c-72.2 0-142.1 22.2-200.6 62.9q-9.1-1.7-18.2-3.5-9.1-1.9-18.1-3.9-9-2-18-4.1-9-2.2-18-4.5c-16 14.4-30.9 30.1-44.5 46.8-13.6 16.7-25.8 34.5-36.6 53.2-10.8 18.7-20.1 38.2-27.8 58.3-7.7 20.2-13.8 40.9-18.2 62q6.5 6.6 12.8 13.3 6.4 6.7 12.7 13.5 6.2 6.8 12.3 13.8 6.2 6.9 12.2 13.9c-12.4 146.4 67.7 285 200.6 347.4 8.2 23.3 15.7 46.8 22.3 70.6 20.5 6.7 41.4 11.8 62.7 15.2 21.3 3.4 42.9 5.1 64.4 5.1 21.6 0 43.1-1.7 64.4-5.1 21.3-3.4 42.3-8.5 62.8-15.2 6.5-23.8 14-47.3 22.2-70.6 132.9-62.5 212.9-201 200.6-347.4 16.1-18.7 32.7-37 50-54.5-4.4-21.1-10.5-41.8-18.2-62-7.7-20.1-17-39.6-27.8-58.3-10.8-18.7-23-36.5-36.6-53.2-13.6-16.8-28.5-32.4-44.5-46.8-23.9 6.2-48 11.5-72.3 16-14.6-10.1-29.9-19.2-45.9-27-16-7.9-32.6-14.5-49.6-19.8-17-5.3-34.3-9.4-51.9-12.1-17.6-2.6-35.4-4-53.2-4zm0 21.4c60.2 0 118.7 16.5 169.5 46.9-28 4.4-56.2 7.7-84.5 9.9-28.3 2.2-56.6 3.4-85 3.4-28.4 0-56.7-1.2-85-3.4-28.3-2.2-56.5-5.5-84.5-9.9 12.7-7.6 25.9-14.4 39.6-20.2 13.6-5.9 27.6-10.8 41.9-14.8 14.4-3.9 28.9-6.9 43.6-8.9 14.7-2 29.6-3 44.4-3zm-266.9 49.1c14.4 3.6 28.9 6.8 43.4 9.8-16.2 13.3-31.1 28-44.6 44-13.5 16-25.6 33.2-36.1 51.3-10.5 18.2-19.3 37.2-26.4 56.9-7 19.7-12.3 40-15.8 60.7-9.8-11.1-19.9-22-30.1-32.7 4.3-18 9.9-35.7 16.8-52.9 6.9-17.3 15-34 24.3-50 9.2-16.1 19.6-31.5 31.1-46 11.5-14.6 24-28.3 37.4-41.1zm533.8 0c13.4 12.8 25.9 26.5 37.4 41.1 11.5 14.5 21.9 29.9 31.1 46 9.3 16 17.4 32.7 24.3 50 6.9 17.2 12.5 34.9 16.8 52.9-10.2 10.7-20.3 21.6-30.1 32.7-3.5-20.7-8.8-41-15.8-60.7-7.1-19.7-15.9-38.7-26.4-56.9-10.5-18.1-22.6-35.3-36.1-51.3-13.5-16-28.4-30.7-44.6-44 14.5-3 29-6.2 43.4-9.8zm-462.5 15.1c32.3 5.8 64.8 10.1 97.4 13 32.7 2.9 65.4 4.4 98.2 4.4 32.8 0 65.5-1.5 98.2-4.4 32.6-2.9 65.1-7.2 97.4-13 18.3 13.5 35.1 28.8 50.2 45.7 15.2 16.9 28.5 35.4 39.9 55 11.3 19.7 20.6 40.5 27.7 62.1 7 21.5 11.9 43.8 14.4 66.3-21.2 25.1-41.2 51.1-60 77.9-18.8 26.8-36.4 54.4-52.8 82.8-16.4 28.4-31.5 57.5-45.3 87.2-13.8 29.7-26.3 60-37.5 90.8-20.8 9.1-42.4 16-64.7 20.7-22.2 4.6-44.8 7-67.5 7-22.7 0-45.4-2.4-67.6-7-22.2-4.7-43.9-11.6-64.7-20.7-11.1-30.8-23.6-61.1-37.4-90.8-13.8-29.7-28.9-58.8-45.3-87.2-16.4-28.4-34-56-52.9-82.8-18.8-26.8-38.8-52.8-59.9-77.9 2.5-22.5 7.3-44.8 14.4-66.3 7.1-21.6 16.4-42.4 27.7-62.1 11.4-19.6 24.7-38.1 39.9-55 15.1-16.9 32-32.2 50.2-45.7zm200.6 28.9c-4.3 0.2-8.5 1.5-12 4-3.6 2.5-6.3 6-7.9 10-1.6 4-2 8.4-1.1 12.6 0.9 4.2 3 8.1 6.1 11.2-3.3-1.9-7.1-2.9-10.9-2.8-3.8 0-7.5 1.1-10.8 3-3.3 1.9-6 4.7-7.8 8-1.9 3.3-2.9 7.1-2.9 10.9 0 4 1.1 7.9 3.2 11.3 2 3.4 5 6.2 8.5 8.1 3.6 1.8 7.6 2.7 11.6 2.4 4-0.3 7.8-1.7 11.1-4-8.1 13.5-20.2 31.5-37.7 31.5-18.2 0-27-7.6-35.1-21.1q1.3 0.3 2.7 0.4 1.3 0.1 2.7 0 1.3-0.1 2.7-0.4 1.3-0.3 2.5-0.7c10.6-3.5 16.5-14.1 13.5-27.5-2.6-11.8-15.2-18.3-26.6-15q-1.4 0.4-2.7 1-1.4 0.6-2.6 1.4-1.2 0.7-2.3 1.7-1.2 0.9-2.1 1.9 1.1-1.9 1.7-4.1 0.7-2.1 1-4.3 0.3-2.2 0.1-4.5-0.1-2.2-0.7-4.4c-3.3-11.6-17.1-20.9-29.1-19.1l47.2 115.8c-2.5 2.6-6 6.6-8.6 11-10-5.1-30.3-12.6-50.4-4.5q-2.5 1-4.8 2.2-2.3 1.3-4.5 2.7-2.2 1.5-4.3 3.2-2 1.7-3.8 3.5c-15 15-22.6 40-26.5 57.7q-0.3 1.8-0.7 3.5-0.4 1.7-0.7 3.4-0.3 1.8-0.6 3.5-0.3 1.7-0.6 3.5c6.2-4.7 10.3-7.7 14.1-10.2 3.4-2.3 6.7-4.2 11.2-6.5 8.2-4.2 19.4-8.8 29.5-8.8 5.5 0 11.6 1.4 15.8 4.9 1.5 1.3 13.5 18.1 37.1 24.3 22.2 5.9 22.7 9.6 23 12.6 0 0-3.9 6.3-12.2 12.2q-1.3-2-2.6-4-1.4-1.9-2.8-3.8-1.5-1.8-3-3.6-1.5-1.8-3.2-3.5c-11-11.5-28.7-17.7-43.2-17.6-13.7 0.1-23.9 6.4-50.8 6.4-27.4 0-46.4-6.9-60.4-15.1-10-5.5-17.3-12.4-24.1-17.9 3.6 8.8 7.1 15.8 10.3 22.8 2.3 5.1 10.9 22.3 21.6 31.6 13.7 11.7 27.4 15.5 40.8 15.5 13.6 0 27-4 40.2-7.9 13-3.8 25.5-7.6 38-7.6 16.3 0 25.1 5.5 32.2 9.8q-1 0.7-1.9 1.3-0.9 0.6-1.9 1.3-0.9 0.6-1.8 1.2-1 0.6-1.9 1.2c-10 6.4-18 8.8-25.7 8.8-9.6 0-26.7-5-41.7-11q0 0.4-0.1 0.8 0 0.4 0 0.9-0.1 0.4-0.1 0.8 0 0.4 0 0.9v3.8c0 8.5 1.4 18.6 10.9 28.4 4.1 4.1 9.1 7.4 15.1 9.6 6.2 2.4 13.6 3.5 21.5 3.9-3.6 3.4-7 6.5-10.3 10.6-8 9.8-14.5 23-14.5 40 0 8.8 1.5 16.1 3.7 23.1 1.6 4.9 3.1 9.4 5.2 14.8l7.1-8.5c0.1-0.1 7.9-9.3 18.5-17q-2.6 5.1-4.6 10.5-2 5.4-3.4 11-1.4 5.5-2.1 11.2-0.7 5.7-0.8 11.5c0 33.7 18.8 61.1 44.4 82.6 0 0 6.1 5.5 10.4 8.8-0.1-5.4 0-8.9 0-13.6 0-16.4 2.7-48.3 13.5-67.5 1.2 4.5 2.5 11.1 3.7 18.6 1.5 9.9 2.7 21.4 2.7 31.3 0 16.6-2.4 28.8-5.2 37.6-3.3 10.1-6 14-8.5 18.2q3.7 0.1 7.4 0 3.7-0.1 7.4-0.5 3.7-0.4 7.3-1 3.7-0.6 7.3-1.5c6.6-1.4 13-3.6 19-6.7 6.1-3 11.7-6.9 16.7-11.4 5-4.6 9.4-9.7 13-15.4 3.7-5.7 6.6-11.9 8.6-18.3 3-9.4 4.6-19.9 4.6-31.3 0-6.6-0.6-13.5-1.6-20.1l-0.8-5.4c1.9 1.5 3.1 2.9 4.7 4.6 6 6.9 11.4 17.5 11.4 34.6 0 5.8-0.3 14.8-2.8 24.9 5.8-1.9 11.7-5.4 17.4-9 6.8-4.3 13.2-9.4 19-15.3 16-16 27.1-37.2 27.3-61.5 0.2-15.8-3.2-28.5-10.7-43.3-0.8-1.6-1.7-3.2-2.5-4.9 1.7 0.8 3.3 1.7 4.9 2.7 8.5 5.5 14 14.1 17.6 23.9 2.2 5.9 3.8 11.7 4.9 18.5 2.5-3 5.4-7.1 8.8-12.8 6.7-11.6 13.8-29.5 13.8-54.9 0-12.5-1.7-26.9-7.4-41.9q-2.1-5.8-5-11.3-2.9-5.5-6.5-10.5-3.6-5.1-7.8-9.7-4.2-4.5-9-8.5c8.8 0.9 17 4.8 23.3 11.1 4.2 4.2 7.5 9.3 10.5 15l3.1 6.4c0.3-3.1 0.3-4.1 0.4-6.8-0.7-45.1-13.3-78-54.2-99.3l-0.3-0.1c14.4-16.3 21.3-34.6 26.1-54.4-9.8-2.5-28.1-4.6-55.7 8.4l44-108.5c-12.1-1.8-25.9 7.5-29.1 19.1q-0.6 2.2-0.8 4.4-0.1 2.3 0.2 4.5 0.2 2.2 0.9 4.3 0.7 2.2 1.8 4.1-1-1-2.1-2-1.1-0.9-2.3-1.6-1.3-0.8-2.6-1.4-1.3-0.6-2.7-1c-11.4-3.3-24 3.2-26.7 15-2.9 13.4 3 24 13.5 27.4 4.5 1.4 5.9 1.5 10.6 0.7-8 13.5-16.4 21-34.7 21-17.4 0-29.7-17.8-37.7-31.3 0 0 8.2 4 12.8 4 2.8 0 5.7-0.6 8.3-1.7 2.6-1.1 5-2.7 7-4.8 2-2 3.6-4.4 4.6-7 1.1-2.7 1.6-5.5 1.6-8.4 0-2.8-0.5-5.6-1.6-8.3-1-2.6-2.6-5-4.6-7.1-2-2-4.4-3.6-7-4.8-2.6-1.1-5.4-1.7-8.3-1.7q-1.4 0-2.9 0.2-1.4 0.2-2.8 0.6-1.4 0.4-2.7 1-1.4 0.5-2.6 1.3 1.6-1.6 2.8-3.4 1.3-1.9 2.1-4 0.9-2 1.4-4.2 0.4-2.2 0.4-4.4c0.1-2.9-0.5-5.7-1.5-8.4-1.1-2.6-2.7-5-4.7-7.1-2-2-4.3-3.6-7-4.7-2.6-1.2-5.4-1.7-8.3-1.8zm120.3 119.5h4.9l-1.6 4.7c-5 14.9-20.9 50.5-60 59.3l0.1 0.7 1.7 8.3c16.6-3.1 27.2-10.1 36.9-18.5 24.7 12 41.4 32 47.3 58.6l1.2 5.3q-0.5-0.5-0.9-0.9-0.5-0.5-0.9-0.9-0.5-0.4-1-0.8-0.5-0.4-1-0.8-2.7-1.6-5.6-2.8-2.9-1.3-6-2.1-3-0.8-6.1-1.2-3.2-0.4-6.3-0.3c-8.7 0-16.3 2.1-20.1 3.4 6.2 5.3 11.3 9.9 15.7 14.3 13.7 13.7 22.6 26.8 27.9 41.2 4 10.9 6 22.3 6 34.9 0 13.5-2.4 25.8-7.1 36.6-0.3 0.9-1.3 3.1-1.7 4.3q-0.1-0.6-0.3-1.1-0.2-0.5-0.3-1.1-0.2-0.5-0.4-1-0.2-0.5-0.5-1c-11.3-24-30.3-29.1-44.2-29.1-2.4 0-4.4 0.1-6.2 0.3l0.2 0.3c9.3 14.3 23.3 35.8 23.3 62.3 0 8.7-1.6 17.2-4.7 25.3q-1.6 3.9-3.5 7.6-1.9 3.7-4.2 7.2-2.4 3.5-5 6.7-2.7 3.3-5.7 6.2c-3.9 3.9-7.4 7.1-13.2 11.1l-3.3 2.4q0.1-0.5 0.2-1 0.1-0.5 0.2-1 0.1-0.5 0.2-1 0-0.5 0-1c0.8-29.9-15.8-53.7-42.4-60.9l0.6 2.5c2.9 11.8 6.2 25.1 6.2 43.1 0 19.4-4.8 35.5-14.3 47.8q-2.3 3-4.9 5.6-2.6 2.7-5.5 5-2.9 2.4-6 4.3-3.2 2-6.5 3.7-2.6 1.3-5.2 2.4-2.7 1.1-5.4 2.1-2.7 0.9-5.5 1.6-2.8 0.7-5.7 1.2l-3.6 0.6c0.4-0.5 1.1-2.1 1.5-2.9q0.3-0.7 0.5-1.3 0.3-0.7 0.5-1.4 0.2-0.7 0.4-1.3 0.2-0.7 0.4-1.4c4.1-15.2 4.2-33.4 4.2-35.6 0-28.2-7-54-11.2-69.4l-0.8-3.2c-3.4 2.4-5.6 4.6-7.1 6.2l-0.6 0.7c-8.8 8.7-15.2 24.1-19 45.5-1.2 6.6-1.8 12.1-2.4 17.9l-0.4 6.5-0.1 4.1c0 0-2.4-2.7-3-3.3q-0.8-0.8-1.6-1.7-0.8-0.8-1.6-1.7-0.8-0.8-1.5-1.7-0.8-0.8-1.6-1.7-2.4-2.7-4.6-5.5-2.2-2.8-4.2-5.8-2-3-3.8-6.1-1.9-3.1-3.5-6.3-0.9-1.9-1.8-3.9-0.8-1.9-1.5-3.9-0.8-2.1-1.4-4.1-0.6-2.1-1.2-4.1-0.5-2.3-1-4.6-0.4-2.4-0.7-4.7-0.3-2.4-0.4-4.7-0.2-2.4-0.2-4.7c0-35.4 21.4-59.2 30.6-68.6l-3 0.5q-1.4 0.3-2.7 0.6-1.4 0.3-2.8 0.6-1.3 0.3-2.7 0.7-1.3 0.4-2.7 0.8-2.4 0.7-4.7 1.6-2.4 0.9-4.7 1.9-2.2 1.1-4.4 2.3-2.3 1.2-4.4 2.6-2.7 1.8-5.4 3.8-2.6 1.9-5.2 4.1-2.5 2.1-4.9 4.4-2.3 2.3-4.6 4.8c-1.5 1.6-0.6-2.8-0.7-3.6q-0.3-1.6-0.5-3.2-0.2-1.7-0.4-3.3-0.2-1.6-0.3-3.3-0.1-1.6-0.1-3.2c0-14.7 5.6-27.8 16.7-38.8 10.4-10.4 18.3-13.8 42.1-23.7l7.3-3.1-10.5 1.5c-14.6 2-21.2 3-33.6 3-17.5 0-29.6-3.6-36.9-10.9q-0.6-0.6-1.1-1.2-0.6-0.7-1.1-1.3-0.5-0.7-1-1.4-0.4-0.7-0.9-1.4-0.5-1-1.1-2-0.5-1-1-2-0.5-1-0.9-2-0.5-1-0.9-2.1l9.1 3.3c1.8 0.6 3.9 1.2 5.7 1.7q2 0.5 4 0.9 2 0.5 4.1 0.8 2 0.3 4.1 0.4 2 0.2 4.1 0.2c14.8 0 26.8-6.5 41.3-16.9 6.1-4.4 11.2-8.6 15.2-12.6 6.1-6.1 7.4-9.4 7.4-9.9-0.2-9-0.5-17.5-31.7-25.6q-4.4-1.2-8.6-3.1-4.2-1.9-8.1-4.4-3.9-2.5-7.3-5.6-3.5-3-6.4-6.6-0.2-0.3-0.5-0.6-0.3-0.3-0.5-0.6-0.3-0.2-0.6-0.5-0.2-0.3-0.5-0.6-2.4-1.9-5.1-3.4-2.7-1.4-5.6-2.4-2.9-1-5.9-1.4-3.1-0.5-6.1-0.4c-6.6 0-13.7 1.4-21.7 4.4q-1.7 0.6-3.4 1.3-1.6 0.6-3.3 1.3-1.6 0.7-3.3 1.4-1.6 0.8-3.2 1.5l-3.6 1.7 1.2-3.8c1.3-4.4 2.8-8.4 4.8-13 1.7-3.9 3.3-7.3 5.2-10.5 6.1-10.3 13.7-17.4 22.5-20.9 4.6-1.9 9.6-2.8 14.9-2.8 12.9 0 24.4 5.5 29.2 8.2 0.3 23.7 14.6 37.3 31 37.3q3 0.1 6-0.5 2.9-0.6 5.7-1.8 2.8-1.1 5.2-2.9 2.5-1.7 4.5-3.9c4.1-4.1 6.6-8.6 8.2-12.2 1.3-2.9 2.2-5 2.3-6.7h0.2q1 0.3 1.9 0.8 1 0.4 1.9 1 0.9 0.5 1.7 1.2 0.8 0.7 1.5 1.4l7.9-7q-1.4-1.4-3-2.7-1.6-1.3-3.2-2.4-1.7-1.1-3.5-2-1.8-0.9-3.7-1.7-1.8-0.7-3.8-1.3-1.9-0.5-3.8-0.9-1.9-0.5-3.9-0.7-2-0.3-4-0.3-1.5-0.1-3-0.1-1.5 0.1-3 0.2-1.5 0.1-3 0.3-1.5 0.2-3 0.4c-4.1 0.7-7.4 1.6-13.2 1.6q-1.5 0.1-3.1-0.1-1.5-0.2-3-0.6-1.5-0.3-3-0.9-1.4-0.6-2.8-1.4 1.7-2.6 3.6-5.1 2-2.5 4.2-4.7 2.2-2.3 4.6-4.3 2.5-2 5.1-3.7l0.2-0.1h127.2l2.5 0.1q-3.5 2.2-6.8 4.7-3.4 2.5-6.5 5.2-3.1 2.8-6 5.7-2.9 3-5.6 6.2l7.2 5.7c16.6-20.8 42.4-33.7 67.3-33.7zm-15.2 16.5c-20.7 2.6-39.4 21.1-39.4 21.1l4.2 9c9.8-2 17.4-7.3 23-12.9 8.3-8.3 11.6-14.6 12.2-17.2zm-184.8 18.1l4.6 1.2c1.9 0.6 4.4 1.1 6.9 1.4l1.2 0.2 0.3 1.2q0.1 0.7 0.3 1.3 0.2 0.7 0.5 1.3 0.3 0.6 0.7 1.2 0.4 0.5 0.9 1c0.9 0.9 2 1.7 3.2 2.2 1.3 0.5 2.6 0.8 3.9 0.8 1.4 0 2.7-0.3 3.9-0.8 1.2-0.5 2.4-1.3 3.3-2.2q0.7-0.6 1.2-1.4 0.5-0.8 0.9-1.6 0.4-0.8 0.6-1.7 0.2-0.9 0.2-1.8l0.1-1.6 1.6-0.1q0.9 0 1.8-0.1 0.9 0 1.8 0 1 0 1.9 0 0.9 0.1 1.8 0.1l3.9 0.3-0.6 2.3q-0.4 2-1.1 3.9-0.7 1.9-1.7 3.7-0.9 1.8-2.2 3.5-1.2 1.6-2.6 3.1-1.5 1.6-3.3 2.8-1.8 1.2-3.8 2.1-2 0.8-4.2 1.2-2.1 0.4-4.3 0.3-1.9 0-3.8-0.4-1.9-0.4-3.7-1.2-1.7-0.7-3.3-1.8-1.6-1.1-2.9-2.5-1.4-1.4-2.6-3.1-1.2-1.7-2.1-3.5-1-1.8-1.6-3.7-0.7-2-1-4zm150.4 49.7l-4.4 13.8c2.8 3.3 4.9 6.4 6.7 8.9 4.8 7.2 7.9 13.7 9.6 20.5 1.7 6.7 1.9 13.1 1.9 19 0 4.7-0.5 9.5-1.5 14.2-0.8 3.3-1.8 7-2.7 9.7-0.8 2.7-2.6 7.6-2.6 7.6 0 0-0.3-5.5-0.8-8.5-0.5-3-0.9-6.2-1.7-8.8q-0.9-2.9-2-5.6-1.2-2.7-2.7-5.2-1.5-2.6-3.2-4.9-1.8-2.4-3.9-4.5-1.3-1.2-2.7-2.4-1.3-1.2-2.8-2.2-1.5-1.1-3-2-1.6-1-3.2-1.8-1.1-0.6-2.3-1.1-1.1-0.6-2.3-1.1-1.2-0.5-2.4-0.9-1.2-0.4-2.4-0.8c0.7 2.7 1.5 5.7 2.3 9.3 2.1 9.2 3.1 16.8 3.1 23.9 0 11.2-2.5 20.7-7.7 29q-0.7 1.1-1.4 2.1-0.7 1-1.5 2-0.8 1-1.6 1.9-0.9 0.9-1.8 1.8-1.4 1.5-2.9 2.9-1.6 1.4-3.2 2.8-1.6 1.3-3.3 2.5-1.7 1.2-3.4 2.3c1.2-2 2.1-4 3.3-6.4 1.4-2.9 2.3-6 2.9-8.3 6.2-21.9-4-35.4-12.3-43.7q-0.5-0.4-0.9-0.8-0.4-0.5-0.8-0.9-0.5-0.4-0.9-0.8-0.4-0.4-0.9-0.8c-0.1 3.1-0.2 6.2-0.4 9.3-0.8 10.6-2.7 22.6-11.7 31.6q-0.6 0.5-1.1 1.1-0.6 0.5-1.2 1.1-0.5 0.5-1.1 1.1-0.6 0.5-1.2 1c-1.8 1.4-3.7 3.1-6.4 4.7 1.1-2.2 2-3.2 3.7-7.3q1.2-3.1 1.8-6.4 0.6-3.3 0.4-6.7-0.1-3.4-0.9-6.6-0.8-3.3-2.3-6.3l-11.3 6.1c0.3 0.8 0.6 1.7 0.8 2.5q0.7 2.5 0.8 5 0.2 2.5-0.2 5-0.3 2.4-1.2 4.8-0.9 2.4-2.3 4.5c-1.6 2.6-3.8 5.3-6.8 8.3-2.6 2.6-5.4 5.1-7.8 7.3l-5.2 4.7 4.6-0.1c5 0 11.7-0.3 18.8-1.5 11.3-2.1 20.2-6.4 27.1-13.4q1.1-1 2.1-2.2 0.9-1.1 1.9-2.3 0.9-1.2 1.7-2.5 0.8-1.2 1.6-2.5c-0.4 3.6-1.3 7.4-2.8 11.3q-0.8 1.9-1.7 3.8-0.9 1.9-1.9 3.7-1 1.8-2.1 3.6-1.1 1.7-2.3 3.4c-2.2 3.2-4.6 6.7-7.7 10.5l-2.9 3.5 4.5-0.6c5.4-0.8 10.7-1.9 16-3.3q5.5-1.3 10.7-3.7 5.2-2.4 9.8-5.7 4.6-3.3 8.5-7.5 3.9-4.2 6.9-9c3.3-5.3 5.7-10.8 7.3-16.8q0.7-2.8 1.2-5.7 0.5-2.9 0.7-5.8 0.3-2.9 0.4-5.9 0-2.9-0.1-5.8c1 1.7 1.9 3.6 2.7 5.7 1.8 4.6 3 9.7 3.7 15.7 0.3 3.7 0.5 7.8 0.5 12.8v1c0 4.8 0 9.4-0.3 14.6l-0.4 5 3.4-3.7c4.5-4.9 9.3-10.5 14.3-18.3 3.1-4.9 5.7-10 7.7-15.3 2.1-5.4 3.6-10.9 4.6-16.6 0.9-5.6 1.3-11.3 1.1-17.1-0.2-5.7-1-11.4-2.4-17q-0.9-3.4-2.1-6.7-1.2-3.3-2.7-6.5-1.5-3.2-3.3-6.2-1.8-3-3.8-5.9-1.3-1.9-2.7-3.7-1.4-1.8-2.8-3.5-1.5-1.7-3-3.4-1.6-1.7-3.2-3.3zm-109.1 5.5q-1 0-1.9 0.1-0.9 0.1-1.8 0.3-0.9 0.2-1.8 0.5-0.9 0.3-1.7 0.7c9.1 1 11.4 3.8 15.6 8 2.2 2.2 4.3 4.6 6.4 6.8 4 4 7.7 7.3 14.6 7.3q0.6 0 1.3-0.1 0.7 0 1.3-0.1 0.7-0.1 1.3-0.3 0.7-0.1 1.3-0.3 1.4-0.3 2.7-0.8 1.3-0.5 2.6-1.1 1.3-0.6 2.5-1.3 1.2-0.7 2.4-1.5-0.8 0.4-1.7 0.6-0.8 0.3-1.6 0.5-0.9 0.1-1.8 0.2-0.8 0.1-1.7 0.1c-17 0-22.1-19.6-38-19.6zm-194.3 3.3c2 1.3 6.2 4.3 12.1 6.7 5.6 2.3 11.5 4.5 18.4 6.1 9.2 2.2 19.5 3.3 31.3 3.3 10.9 0 23.9-1.8 38.7-5.1 4.8-1.1 9.8-2.1 13.8-2.1 7.2 0 14.1 1.2 19.3 3.9 5.1 2.7 8.7 5.6 13.1 9.3q-1.9-0.5-3.9-0.9-2-0.4-4-0.7-2-0.3-4-0.5-2-0.2-4.1-0.3c-4.7-0.3-11.3 0.1-15.5 0.7-9.3 1.4-17.5 3.8-26.1 6.4l-1 0.3c-13 3.8-25.3 7.5-37.4 7.5-14.1 0-26.8-5.3-36.7-15.2-2.2-2.2-5.7-5.7-8.1-9q-0.8-1.2-1.6-2.5-0.8-1.2-1.6-2.5-0.7-1.3-1.4-2.7-0.7-1.3-1.3-2.6zm-102.1 18.9c17.9 22 34.8 44.8 50.9 68.1 16 23.4 31.2 47.4 45.3 72 14.2 24.5 27.4 49.7 39.7 75.2 12.2 25.6 23.4 51.7 33.6 78.2-25.6-14.3-49.1-31.8-70.1-52.3-20.9-20.4-39.1-43.5-53.9-68.8-14.8-25.2-26.3-52.3-33.9-80.5-7.7-28.3-11.6-57.4-11.6-86.7 0-1.8 0-3.5 0-5.2zm659.6 0v5.2c0 29.3-3.9 58.4-11.6 86.6-7.6 28.3-19.1 55.4-33.9 80.6-14.8 25.2-33 48.4-53.9 68.8-20.9 20.5-44.5 38-70.1 52.3 10.2-26.5 21.4-52.6 33.6-78.2 12.3-25.6 25.5-50.7 39.7-75.2 14.1-24.6 29.3-48.6 45.3-72 16.1-23.3 33.1-46.1 50.9-68.1zm-452.7 334.2c19.7 7.3 39.9 12.9 60.5 16.6 20.6 3.7 41.5 5.6 62.4 5.6 21 0 41.9-1.9 62.5-5.6 20.6-3.7 40.8-9.3 60.5-16.6-4.7 14.1-9.1 28.2-13.2 42.5-17.8 5.2-36 9.2-54.3 11.8-18.4 2.7-36.9 4-55.5 4-18.5 0-37-1.3-55.4-4-18.3-2.6-36.5-6.6-54.3-11.8q-1.5-5.4-3.1-10.7-1.6-5.3-3.3-10.6-1.6-5.3-3.3-10.6-1.7-5.3-3.5-10.6z"/>
</svg>