<svg version="1.2" xmlns="http://www.w3.org/2000/svg" viewBox="0 0 800 800" width="800" height="800">
	<title>logotypes of trucks</title>
	<style>
		.s0 { fill: #000000 } 
	</style>
	<path id="volvo" class="s0" d="m720.8 161l18.9-18.9c13.5 17.7 25.6 36.5 36.2 56.2h15v-188.9h-188.9v14.8c19.6 10.6 38.3 22.7 55.9 36.1l-18.9 18.9c-17.1-12.8-35.3-24.1-54.2-34-18.9-9.9-38.6-18.2-58.9-25-20.3-6.7-41-11.8-62.1-15.2-21.1-3.3-42.4-5-63.8-5-220.9 0-400 179.1-400 400 0 220.9 179.1 400 400 400 220.9 0 400-179.1 400-400 0-89.6-29.5-172.3-79.2-239zm-260.7 213.2h-17.2v-11.5h74.9v11.5h-18.1l25.3 46.1 24.9-46.1h-14.9v-11.5h51.7v11.5h-17.2l-34.3 63.3h-40.3zm172.7-13.1c34.7 0 53.3 17.4 53.3 39.1 0 22-17.5 39.5-53.1 39.5-35.6 0-53.3-17.5-53.3-39.5 0-21.7 18.4-39 53.1-39.1zm-440.1 59.2l25-46.1h-14.9v-11.4h51.6v11.4h-17.2l-34.3 63.4-40.3-0.1-34.8-63.3h-17.2v-11.4h74.9v11.4h-18.1zm107.9-59.1c34.7 0 53.4 17.3 53.4 39 0 22-17.6 39.6-53.2 39.6-35.5 0-53.3-17.6-53.3-39.6 0-21.7 18.4-39 53.1-39zm-18.3 38.5c0.2-14.4 7.1-26.9 19-26.7 11.8 0.2 18.1 13 17.9 27.4-0.3 13.6-5.9 27.7-18.9 27.5-12.7-0.3-18.3-14.3-18-28.2zm332.1 0c0.3-14.4 7.2-26.9 19-26.7 11.9 0.2 18.2 13 17.9 27.4-0.2 13.6-5.8 27.7-18.9 27.5-12.6-0.3-18.2-14.3-18-28.2zm-506.8-72c32.4-131.5 151-228.9 292.4-228.9 141.5 0 260.1 97.4 292.5 228.8zm584.9 144.8c-32.4 131.4-151 228.8-292.4 228.8-141.5 0-260.1-97.4-292.5-228.8zm-316.8-98.3h-17.4v-11.4h69v11.4h-17.2v51.7h16c14.8 0 24.5-9.7 24.5-23h11.4v34.6h-103.7v-11.6h17.4z"/>
</svg>