<?xml version="1.0" standalone="no"?>
<!DOCTYPE svg PUBLIC "-//W3C//DTD SVG 20010904//EN"
 "http://www.w3.org/TR/2001/REC-SVG-20010904/DTD/svg10.dtd">
<svg version="1.0" xmlns="http://www.w3.org/2000/svg"
 width="500.000000pt" height="506.000000pt" viewBox="0 0 500.000000 506.000000"
 preserveAspectRatio="xMidYMid meet">

<g transform="translate(0.000000,506.000000) scale(0.100000,-0.100000)"
fill="#000000" stroke="none">
<path d="M2435 5049 c-259 -20 -578 -86 -791 -164 -142 -52 -381 -172 -504
-252 -141 -93 -283 -209 -410 -335 -377 -374 -619 -863 -707 -1428 -22 -142
-25 -499 -5 -635 59 -408 191 -764 406 -1090 97 -147 180 -248 306 -373 369
-366 795 -592 1315 -697 293 -59 258 -58 1663 -62 l1292 -4 0 936 0 935 -1072
0 c-1105 0 -1230 4 -1377 41 -225 56 -392 206 -469 421 -23 64 -26 89 -26 193
0 104 3 129 26 193 68 190 208 331 394 398 160 58 129 57 1377 61 l1147 4 0
934 0 935 -263 0 -263 0 -77 -49 c-72 -45 -80 -48 -108 -38 -64 25 -146 -56
-104 -103 26 -29 47 -26 159 27 154 72 241 66 291 -22 34 -60 38 -90 20 -153
-31 -107 -197 -234 -325 -249 -58 -7 -125 14 -158 50 l-21 23 84 53 c70 44 87
51 104 42 28 -15 67 -14 100 4 30 15 41 33 41 69 0 58 -57 60 -170 5 -141 -68
-208 -63 -269 21 -69 95 -39 212 73 288 l48 32 -808 -1 c-445 -1 -858 -6 -919
-10z m1451 -275 c19 -9 50 -35 68 -58 48 -58 230 -356 222 -363 -3 -3 -43 -30
-88 -59 -63 -40 -86 -50 -94 -41 -6 7 -50 74 -98 150 -90 140 -114 167 -152
167 -35 0 -74 -37 -74 -71 0 -37 12 -60 111 -215 43 -69 79 -127 79 -129 0 -7
-167 -115 -178 -115 -9 0 -312 473 -312 486 1 5 40 33 87 63 66 41 88 50 94
40 4 -8 15 -23 23 -34 15 -20 15 -20 16 5 1 67 68 150 142 177 48 17 115 15
154 -3z m-687 -140 c22 -36 41 -68 41 -72 0 -8 -164 -112 -176 -112 -9 1 -87
120 -88 135 -1 8 162 115 175 115 4 0 25 -30 48 -66z m173 -271 c41 -65 111
-175 156 -245 l81 -126 -90 -57 c-51 -32 -94 -54 -99 -49 -5 5 -76 115 -158
244 l-150 235 87 57 c47 31 89 57 92 57 3 1 40 -52 81 -116z m-317 -128 c17
-9 44 -28 58 -43 40 -42 239 -364 230 -371 -25 -21 -171 -111 -179 -111 -5 1
-47 62 -94 137 -47 75 -96 149 -108 165 -47 55 -130 22 -119 -48 3 -18 49
-101 102 -184 54 -83 96 -153 94 -154 -24 -22 -183 -116 -187 -111 -4 3 -52
77 -108 163 -112 175 -132 192 -182 155 -51 -38 -44 -64 67 -237 56 -86 101
-160 101 -164 -1 -8 -166 -112 -177 -112 -7 1 -301 456 -311 480 -2 5 36 34
84 65 66 43 89 53 95 43 4 -7 14 -22 23 -33 14 -19 15 -19 20 10 4 17 17 50
30 75 31 61 110 104 176 97 25 -2 52 -8 61 -11 13 -6 19 2 28 42 24 96 108
162 209 162 30 0 69 -7 87 -15z m-892 -559 c18 -7 46 -27 63 -43 29 -30 238
-354 237 -369 -1 -4 -42 -33 -92 -66 l-91 -58 -46 72 c-151 236 -167 258 -191
264 -51 13 -93 -34 -79 -89 3 -12 45 -85 94 -162 48 -77 91 -145 95 -151 6
-10 -159 -124 -179 -124 -5 0 -53 69 -106 154 -54 84 -105 159 -113 166 -33
27 -88 9 -105 -35 -11 -29 5 -61 109 -223 51 -79 91 -145 89 -146 -1 -2 -42
-29 -91 -60 l-87 -56 -44 68 c-165 256 -266 416 -266 423 0 8 154 109 167 109
5 0 17 -15 28 -32 l19 -33 12 46 c15 62 39 100 79 127 50 35 100 46 151 33 23
-6 45 -11 48 -11 2 0 7 18 11 40 20 118 176 203 288 156z m-724 -739 c83 -131
151 -239 151 -241 0 -3 -126 -86 -167 -109 -6 -4 -19 6 -31 24 l-19 31 -11
-44 c-17 -65 -51 -109 -111 -140 -92 -48 -180 -33 -243 41 -17 21 -77 111
-133 201 l-103 164 90 59 c50 32 93 56 96 53 2 -3 46 -69 96 -147 102 -158
131 -188 172 -173 15 5 36 21 47 36 29 38 18 66 -86 230 -48 74 -87 139 -87
144 0 12 174 123 181 115 3 -3 74 -113 158 -244z m-795 -30 l56 -87 -113 -73
c-122 -80 -161 -118 -177 -175 -14 -52 -12 -81 9 -127 35 -78 107 -116 188
-100 46 8 90 30 198 100 47 30 88 55 92 55 5 0 28 -33 53 -72 81 -129 89 -104
-68 -204 -153 -98 -223 -131 -303 -140 -70 -8 -184 16 -244 51 -59 35 -132
117 -164 185 -23 49 -26 67 -26 165 0 206 51 283 290 435 77 49 143 86 146 82
4 -4 32 -46 63 -95z"/>
</g>
</svg>
