<?xml version="1.0" standalone="no"?>
<!DOCTYPE svg PUBLIC "-//W3C//DTD SVG 20010904//EN"
 "http://www.w3.org/TR/2001/REC-SVG-20010904/DTD/svg10.dtd">
<svg version="1.0" xmlns="http://www.w3.org/2000/svg"
 width="301.000000pt" height="167.000000pt" viewBox="0 0 301.000000 167.000000"
 preserveAspectRatio="xMidYMid meet">

<g transform="translate(0.000000,167.000000) scale(0.100000,-0.100000)"
fill="#000000" stroke="none">
<path d="M2636 1204 c-4 -19 -10 -42 -13 -50 -5 -13 7 -14 68 -12 l73 3 12 48
12 47 -73 0 -73 0 -6 -36z"/>
<path d="M487 1120 c-123 -31 -207 -127 -207 -237 0 -82 52 -142 141 -163 63
-15 155 -7 212 18 40 18 117 91 117 112 0 6 -32 10 -75 10 -61 0 -81 -4 -104
-21 -40 -29 -97 -23 -124 13 -18 24 -19 32 -9 67 23 74 119 125 162 86 11 -10
20 -29 20 -42 0 -22 3 -23 76 -23 l76 0 -4 55 c-5 60 -21 85 -72 109 -41 19
-159 28 -209 16z"/>
<path d="M1451 1121 c-89 -23 -151 -75 -151 -125 0 -57 45 -89 174 -126 83
-24 99 -36 72 -56 -29 -21 -92 -18 -116 6 -11 11 -20 25 -20 30 0 6 -32 10
-75 10 l-75 0 0 -29 c0 -78 102 -128 241 -118 128 8 206 57 216 135 7 51 -16
76 -92 97 -30 8 -80 22 -110 30 -60 17 -72 39 -29 55 40 16 63 12 90 -15 22
-22 34 -25 94 -25 63 0 70 2 70 20 0 37 -23 70 -65 90 -47 23 -171 34 -224 21z"/>
<path d="M963 1073 c-60 -77 -253 -342 -253 -348 0 -3 38 -5 84 -5 78 0 85 2
100 25 15 23 22 25 95 25 76 0 79 -1 85 -25 6 -24 9 -25 86 -25 44 0 80 3 80
8 0 4 -15 90 -33 192 l-33 185 -91 3 -91 3 -29 -38z m102 -221 c-1 -2 -26 -2
-54 0 l-51 3 47 70 48 70 7 -70 c4 -38 5 -71 3 -73z"/>
<path d="M1816 1058 c-8 -29 -29 -109 -46 -178 -17 -69 -33 -133 -36 -143 -5
-16 7 -17 202 -15 l208 3 12 48 12 47 -129 0 c-135 0 -139 2 -123 44 5 13 26
16 129 16 68 0 126 3 128 8 3 4 8 22 12 40 l7 32 -127 0 c-112 0 -126 2 -121
16 3 9 6 20 6 25 0 5 59 9 134 9 l134 0 11 44 c6 25 11 47 11 50 0 3 -92 6
-204 6 l-205 0 -15 -52z"/>
<path d="M2420 1103 c0 -5 -22 -92 -49 -195 l-49 -188 73 0 74 0 12 56 c7 31
19 63 27 71 20 20 43 103 37 133 -3 14 1 49 9 78 l14 52 -74 0 c-41 0 -74 -3
-74 -7z"/>
<path d="M2610 1106 c0 -2 -22 -90 -49 -195 l-49 -191 71 0 72 0 48 188 c26
103 47 190 47 195 0 4 -31 7 -70 7 -38 0 -70 -2 -70 -4z"/>
<path d="M2785 1053 c-9 -32 -22 -62 -29 -68 -18 -15 -47 -128 -35 -136 10 -6
5 -35 -17 -111 -5 -16 3 -18 68 -18 l74 0 44 178 c25 97 46 185 48 195 3 15
-5 17 -67 17 l-70 0 -16 -57z"/>
<path d="M152 540 c-45 -61 -82 -113 -82 -115 0 -3 607 -5 1348 -5 l1348 0 27
104 c15 57 27 109 27 115 0 8 -351 11 -1293 11 l-1294 0 -81 -110z m1352 -1
c27 -63 26 -93 -1 -51 -19 28 -59 29 -68 2 -3 -11 -13 -20 -21 -20 -8 0 -13 3
-11 8 3 4 17 33 30 65 14 31 30 57 35 57 5 0 21 -28 36 -61z m153 46 c2 -7
-12 -9 -37 -7 -34 4 -41 1 -51 -21 -16 -36 3 -67 41 -67 20 0 30 5 30 15 0 8
-7 15 -16 15 -8 0 -12 5 -9 10 3 6 15 10 26 10 15 0 19 -7 19 -35 0 -35 0 -35
-44 -35 -35 0 -48 5 -60 22 -37 52 -2 111 61 106 20 -2 38 -8 40 -13z m112 -3
c6 -11 6 -24 0 -35 -8 -13 -5 -25 11 -47 29 -40 7 -38 -30 3 l-29 32 -1 -32
c0 -18 -4 -33 -10 -33 -6 0 -10 28 -10 65 l0 65 30 0 c18 0 33 -7 39 -18z m71
-47 c0 -37 -4 -65 -10 -65 -6 0 -10 28 -10 65 0 37 4 65 10 65 6 0 10 -28 10
-65z m150 52 c0 -9 -10 -12 -30 -9 -36 5 -60 -12 -60 -43 0 -31 24 -48 60 -43
20 3 30 0 30 -9 0 -9 -13 -13 -39 -13 -31 0 -44 6 -60 26 -12 15 -21 32 -21
39 0 7 9 24 21 39 16 20 29 26 60 26 26 0 39 -4 39 -13z m50 -29 c0 -54 11
-71 41 -66 21 3 24 9 27 56 2 37 7 52 18 52 20 0 19 -79 -2 -108 -18 -26 -65
-30 -88 -6 -18 17 -23 114 -6 114 6 0 10 -19 10 -42z m150 -13 c0 -54 0 -55
30 -55 17 0 30 -4 30 -10 0 -5 -18 -10 -40 -10 l-40 0 0 65 c0 37 4 65 10 65
6 0 10 -25 10 -55z m160 45 c0 -5 -9 -10 -20 -10 -18 0 -20 -7 -20 -55 0 -44
-3 -55 -16 -55 -13 0 -15 10 -12 55 3 51 2 55 -19 55 -13 0 -23 5 -23 10 0 6
25 10 55 10 30 0 55 -4 55 -10z m52 -42 c3 -47 6 -53 27 -56 30 -5 41 12 41
66 0 23 5 42 10 42 17 0 12 -97 -6 -114 -20 -21 -63 -20 -86 1 -23 21 -26 113
-4 113 11 0 16 -15 18 -52z m186 40 c15 -15 16 -48 1 -48 -6 0 -1 -14 11 -31
28 -38 16 -53 -14 -16 -27 34 -46 35 -46 2 0 -14 -4 -25 -10 -25 -6 0 -10 28
-10 65 0 65 0 65 28 65 15 0 33 -5 40 -12z m132 2 c0 -5 -11 -10 -25 -10 -16
0 -25 -6 -25 -15 0 -9 9 -15 25 -15 14 0 25 -4 25 -10 0 -5 -11 -10 -25 -10
-18 0 -25 -5 -25 -20 0 -15 7 -20 24 -20 14 0 28 -4 31 -10 4 -6 -10 -10 -34
-10 l-41 0 0 65 0 65 35 0 c19 0 35 -4 35 -10z"/>
<path d="M1456 545 c-3 -9 0 -15 9 -15 16 0 20 16 6 24 -5 3 -11 -1 -15 -9z"/>
<path d="M1720 565 c0 -8 7 -15 15 -15 8 0 15 7 15 15 0 8 -7 15 -15 15 -8 0
-15 -7 -15 -15z"/>
<path d="M2540 566 c0 -10 9 -16 21 -16 24 0 21 23 -4 28 -10 2 -17 -3 -17
-12z"/>
</g>
</svg>
