<?xml version="1.0" standalone="no"?>
<!DOCTYPE svg PUBLIC "-//W3C//DTD SVG 20010904//EN"
 "http://www.w3.org/TR/2001/REC-SVG-20010904/DTD/svg10.dtd">
<svg version="1.0" xmlns="http://www.w3.org/2000/svg"
 width="600.000000pt" height="600.000000pt" viewBox="0 0 600.000000 600.000000"
 preserveAspectRatio="xMidYMid meet">

<g transform="translate(0.000000,600.000000) scale(0.100000,-0.100000)"
fill="#000000" stroke="none">
<path d="M1192 5554 l-152 -146 0 -1716 1 -1717 151 -142 152 -143 1656 0
1656 0 152 146 152 146 0 1713 0 1713 -152 146 -153 146 -1656 0 -1655 0 -152
-146z m3512 -103 l108 -108 -1 -1649 -2 -1649 -107 -107 -107 -108 -1602 0
-1601 0 -106 112 -106 113 0 1640 0 1640 112 112 113 113 1595 0 1595 0 109
-109z"/>
<path d="M2542 5452 c-38 -37 -53 -61 -66 -105 -14 -48 -29 -70 -99 -141 -49
-50 -103 -94 -134 -110 -51 -25 -51 -26 -40 -55 15 -41 -2 -75 -92 -179 -39
-45 -71 -86 -71 -90 0 -4 14 -13 30 -19 26 -10 30 -16 30 -51 0 -28 -9 -51
-31 -82 -31 -42 -32 -47 -34 -164 -5 -222 -35 -415 -91 -579 -46 -135 -53
-359 -18 -571 21 -130 44 -176 110 -221 109 -75 189 -192 234 -343 l22 -73 68
-34 c84 -42 151 -108 185 -183 15 -31 30 -63 34 -71 9 -17 169 -108 266 -152
57 -25 75 -39 97 -75 35 -56 80 -84 138 -84 87 0 144 61 144 155 0 87 -53 151
-134 162 l-42 6 6 -64 7 -64 -34 37 c-19 21 -63 92 -98 158 -46 86 -69 120
-82 120 -31 0 -74 28 -111 73 -20 24 -36 46 -36 49 0 3 51 -11 113 -32 62 -21
149 -46 194 -56 75 -17 82 -21 99 -53 25 -46 104 -124 141 -140 22 -9 36 -26
52 -67 14 -33 35 -63 54 -76 48 -34 62 -54 108 -155 43 -94 52 -103 110 -103
15 0 51 13 81 29 l54 28 17 -29 c21 -37 60 -51 124 -44 l52 6 11 -57 c6 -32
15 -68 20 -79 28 -69 239 -9 293 83 l18 32 -61 87 c-34 48 -68 103 -75 123
-22 62 -71 153 -129 241 -51 76 -58 93 -77 189 -28 139 -43 176 -84 200 -54
31 -66 59 -76 174 -11 135 -50 283 -93 360 -59 107 -69 148 -67 285 1 146 -14
230 -64 345 -19 46 -35 86 -35 89 0 10 70 28 107 28 18 0 74 -14 125 -31 120
-41 230 -44 328 -11 92 31 100 38 67 53 -57 26 -29 43 151 94 46 13 94 31 108
39 30 21 31 46 2 46 -27 0 -55 16 -46 26 4 3 44 15 89 25 104 25 169 64 169
103 0 8 -399 6 -715 -4 -345 -11 -428 -29 -586 -131 l-49 -31 -65 17 c-50 14
-86 17 -157 12 -51 -4 -103 -9 -115 -13 l-23 -6 0 225 0 224 50 7 c69 9 124
30 203 78 l68 41 109 -5 c87 -5 113 -3 131 10 20 14 49 68 49 92 0 6 -28 10
-69 10 -49 0 -74 5 -85 15 -40 40 30 71 140 62 60 -6 73 -4 78 9 13 34 5 66
-27 101 -33 35 -34 36 -60 19 -34 -23 -87 -14 -87 14 0 27 18 34 46 19 21 -11
26 -10 39 7 17 23 17 25 6 43 -8 12 -48 14 -238 12 -181 -2 -240 1 -288 13
-32 9 -84 16 -113 16 l-55 0 6 46 5 45 -32 -6 c-17 -4 -51 -16 -75 -26 -24
-10 -45 -19 -47 -19 -2 0 -4 34 -4 75 0 92 -9 95 -78 27z m422 -238 c3 -8 2
-23 -4 -33 -8 -15 -16 -17 -57 -10 -26 4 -54 8 -62 8 -11 1 -11 4 0 17 28 34
112 47 123 18z m-225 -465 c36 -13 36 -15 16 -129 -20 -113 -38 -380 -30 -455
8 -80 -8 -53 -29 49 -26 125 -39 309 -31 433 8 124 8 125 74 102z m225 -540
c39 -12 85 -30 102 -40 44 -27 64 -24 77 11 14 37 28 37 94 5 131 -66 213
-226 213 -420 0 -79 -18 -177 -41 -227 -6 -15 -22 -28 -38 -31 -15 -3 -39 -15
-54 -27 -33 -26 -23 -54 23 -63 55 -12 106 -89 83 -126 -16 -25 -81 -26 -104
-2 -46 49 -110 61 -188 36 -39 -13 -22 24 24 49 62 35 60 66 -17 217 -63 124
-103 175 -203 254 -21 16 -45 45 -53 65 -14 34 -35 296 -25 313 7 11 31 8 107
-14z m-9 -590 c45 -12 99 -50 116 -80 18 -35 1 -82 -51 -144 -27 -32 -57 -79
-67 -104 -9 -26 -21 -52 -26 -58 -13 -18 -52 -16 -71 3 -14 14 -13 20 14 71
49 91 38 124 -57 172 -46 23 -63 46 -63 85 0 55 103 83 205 55z m-594 -187
c14 -9 43 -36 63 -60 21 -23 49 -45 62 -48 13 -3 24 -13 24 -21 0 -8 13 -28
29 -44 28 -27 34 -29 115 -29 131 0 174 -27 124 -76 -68 -69 -348 -49 -479 35
-85 54 -113 159 -57 219 41 44 79 51 119 24z m1175 -331 c50 -31 81 -79 119
-191 47 -136 106 -261 144 -308 48 -57 39 -122 -15 -122 -31 0 -43 20 -54 85
-14 87 -42 134 -152 257 -105 118 -137 171 -138 226 0 70 35 90 96 53z m-270
-89 c6 -4 16 -23 23 -43 13 -41 37 -65 144 -143 91 -67 108 -92 137 -200 46
-174 51 -188 85 -222 19 -18 39 -51 44 -71 12 -43 14 -73 5 -73 -4 0 -38 20
-76 45 -38 25 -75 48 -83 51 -32 13 -173 192 -208 265 -46 97 -111 170 -176
198 -27 11 -52 29 -56 40 -20 65 108 188 161 153z m-767 -90 c39 -21 55 -49
107 -186 38 -102 100 -186 137 -186 36 0 5 -40 -45 -59 -27 -10 -29 -8 -54 42
-43 83 -82 136 -176 234 -71 74 -88 97 -88 122 0 51 56 67 119 33z m1403 -632
c10 -30 32 -72 49 -92 25 -31 30 -46 27 -80 -2 -25 -10 -45 -20 -52 -30 -18
-49 13 -58 93 -8 74 -19 96 -50 106 -42 13 -30 89 12 83 16 -2 26 -17 40 -58z"/>
<path d="M1187 1417 l-147 -142 0 -342 0 -341 153 -146 152 -146 1654 0 1653
0 154 146 154 146 0 337 c0 185 -4 341 -8 346 -4 6 -71 72 -149 148 l-142 137
-1663 -1 -1663 0 -148 -142z m3510 -99 l111 -113 6 -270 6 -271 -113 -112
-112 -112 -1595 0 -1595 0 -112 112 -113 113 0 270 0 271 113 112 114 112
1589 0 1589 0 112 -112z"/>
<path d="M1360 930 l0 -351 128 3 127 3 1 108 c1 59 3 109 5 111 2 3 28 -47
58 -110 l54 -114 123 0 c68 0 124 2 124 5 0 2 -34 87 -76 187 -42 101 -79 192
-84 203 -6 17 13 45 115 160 l123 140 -76 3 -77 4 -140 -146 c-77 -81 -142
-146 -145 -146 -3 0 -4 65 -2 145 l3 145 -130 0 -131 0 0 -350z"/>
<path d="M2129 938 c-61 -189 -114 -347 -116 -351 -3 -4 21 -7 53 -5 l58 3 12
40 11 40 108 0 108 0 16 -43 15 -42 203 0 202 0 3 151 3 152 60 -149 60 -149
60 -3 60 -2 60 150 c33 82 63 150 68 150 4 0 7 -67 7 -150 l0 -150 105 0 105
0 0 350 0 350 -109 0 -108 0 -23 -62 c-13 -35 -41 -110 -63 -168 -47 -121 -34
-132 -112 93 l-47 137 -129 0 -129 0 -2 -307 -3 -307 -129 307 -128 307 -84 0
-83 0 -112 -342z m186 -149 c6 -18 1 -19 -64 -19 l-70 0 30 83 c16 45 32 89
35 97 5 12 41 -72 69 -161z"/>
<path d="M3661 1257 c-5 -13 -55 -165 -111 -338 -57 -172 -105 -320 -107 -326
-4 -10 10 -13 50 -13 l55 0 14 43 15 42 105 3 105 3 17 -46 18 -45 145 0 c134
0 145 1 139 18 -4 9 -66 167 -139 349 l-132 333 -83 0 c-77 0 -83 -2 -91 -23z
m52 -389 c15 -46 27 -86 27 -90 0 -5 -30 -8 -66 -8 -54 0 -65 3 -61 14 3 8 18
49 33 90 15 42 29 76 33 76 3 0 19 -37 34 -82z"/>
<path d="M4140 1235 l0 -45 110 0 c74 0 110 -4 110 -11 0 -11 -207 -576 -217
-591 -2 -5 109 -8 246 -8 l251 0 0 60 0 60 -95 0 c-52 0 -95 4 -95 8 0 4 50
133 110 286 61 152 110 279 110 282 0 2 -119 4 -265 4 l-265 0 0 -45z"/>
</g>
</svg>
