<?xml version="1.0" standalone="no"?>
<!DOCTYPE svg PUBLIC "-//W3C//DTD SVG 20010904//EN"
 "http://www.w3.org/TR/2001/REC-SVG-20010904/DTD/svg10.dtd">
<svg version="1.0" xmlns="http://www.w3.org/2000/svg"
 width="2560.000000pt" height="512.000000pt" viewBox="0 0 2560.000000 512.000000"
 preserveAspectRatio="xMidYMid meet">

<g transform="translate(0.000000,512.000000) scale(0.100000,-0.100000)"
fill="#000000" stroke="none">
<path d="M18028 4428 l-3 -573 -1157 -3 -1158 -2 0 -665 0 -665 428 -2 427 -3
3 -1127 2 -1128 735 0 735 0 -7 1655 -6 1655 672 0 672 0 -54 -63 c-138 -162
-216 -317 -258 -510 -84 -381 41 -807 308 -1057 177 -165 363 -252 768 -359
164 -43 243 -71 286 -102 59 -42 76 -168 32 -228 -77 -102 -302 -102 -602 1
-131 45 -365 155 -525 247 -60 34 -110 60 -112 58 -3 -2 -363 -851 -401 -943
-7 -19 311 -189 519 -277 336 -144 610 -203 993 -213 163 -5 237 -3 331 10
317 42 570 149 821 348 250 198 407 521 420 869 7 161 -6 268 -47 391 -60 179
-153 330 -286 462 -168 167 -355 257 -746 362 -270 71 -353 113 -378 190 -24
72 22 157 99 183 141 47 469 -49 840 -245 57 -30 107 -51 111 -47 10 10 400
938 400 949 0 5 -44 34 -98 66 -312 181 -631 288 -981 328 -158 19 -499 8
-626 -20 -258 -55 -498 -162 -698 -312 -43 -32 -80 -58 -83 -58 -2 0 -5 314
-6 698 l-3 697 -682 3 -683 2 -2 -572z"/>
<path d="M5534 3999 c-826 -60 -1529 -665 -1708 -1470 -79 -358 -59 -767 55
-1103 297 -878 1195 -1426 2099 -1281 830 133 1455 766 1587 1608 26 168 24
521 -5 677 -71 386 -236 714 -499 991 -325 341 -747 540 -1228 579 -139 11
-138 11 -301 -1z m309 -1421 c265 -81 427 -371 362 -647 -45 -191 -208 -356
-402 -406 -74 -19 -203 -19 -278 1 -168 43 -316 186 -377 362 -32 95 -32 249
0 344 96 278 408 434 695 346z"/>
<path d="M22300 2644 c0 -1064 2 -1240 16 -1332 54 -367 264 -704 561 -903
231 -154 501 -249 792 -279 158 -16 505 -13 630 6 273 40 529 138 764 293 259
171 413 401 509 762 l22 84 3 1298 4 1297 -726 0 -725 0 -2 -1159 -3 -1159
-30 -43 c-46 -65 -87 -89 -154 -89 -70 0 -124 29 -166 88 l-30 44 -3 1159 -2
1159 -730 0 -730 0 0 -1226z"/>
<path d="M0 2055 l0 -1795 740 0 740 0 1 908 1 907 37 -80 c21 -44 206 -452
411 -908 l373 -827 833 0 c459 0 834 2 834 3 0 2 -192 399 -426 883 -234 483
-432 895 -440 915 l-15 37 419 876 420 876 -837 0 -836 -1 -385 -861 -385
-861 -3 862 -2 861 -740 0 -740 0 0 -1795z"/>
<path d="M8220 3844 c0 -11 -530 -3528 -536 -3557 l-6 -27 664 0 664 0 89 680
c49 373 90 678 92 676 2 -2 319 -1151 362 -1314 l12 -42 431 2 431 3 186 678
c102 372 187 674 188 670 3 -9 193 -1333 193 -1345 0 -4 618 -8 1373 -8 l1372
0 215 840 c118 462 217 840 220 840 3 0 102 -377 220 -837 l215 -838 769 -3
c613 -2 767 0 763 10 -2 7 -277 807 -610 1778 -333 971 -609 1773 -612 1783
-7 16 -51 17 -739 17 l-731 0 -409 -1213 c-644 -1908 -728 -2158 -733 -2154
-3 4 -493 3331 -493 3355 0 9 -141 12 -673 12 l-672 0 -219 -702 c-120 -387
-222 -709 -226 -717 -9 -16 2 -48 -271 826 l-184 593 -672 0 c-370 0 -673 -3
-673 -6z"/>
</g>
</svg>
