<?xml version="1.0" standalone="no"?>
<!DOCTYPE svg PUBLIC "-//W3C//DTD SVG 20010904//EN"
 "http://www.w3.org/TR/2001/REC-SVG-20010904/DTD/svg10.dtd">
<svg version="1.0" xmlns="http://www.w3.org/2000/svg"
 width="654.000000pt" height="570.000000pt" viewBox="0 0 654.000000 570.000000"
 preserveAspectRatio="xMidYMid meet">

<g transform="translate(0.000000,570.000000) scale(0.100000,-0.100000)"
fill="#000000" stroke="none">
<path d="M3127 4767 c-49 -123 -92 -238 -96 -257 -5 -19 -95 -251 -201 -515
-106 -264 -196 -493 -199 -510 l-7 -30 -971 -3 -972 -2 -21 -46 c-11 -26 -20
-53 -20 -61 0 -8 -90 -225 -200 -481 -110 -257 -200 -472 -200 -479 0 -6 -16
-49 -35 -94 -19 -46 -35 -86 -35 -89 0 -7 11 -9 580 -89 234 -33 715 -101
1070 -151 355 -50 740 -104 855 -120 116 -16 280 -39 365 -52 l155 -22 215 33
c118 17 350 52 515 76 165 25 482 72 705 105 357 53 1022 152 1333 197 59 9
107 19 107 23 0 4 -56 165 -125 359 -69 193 -125 358 -125 365 0 11 -75 229
-172 499 l-10 27 -904 0 c-765 0 -904 2 -904 14 0 8 -90 235 -200 505 -110
271 -200 497 -200 504 0 16 -203 517 -210 517 -3 0 -45 -100 -93 -223z m197
-143 c54 -140 102 -269 106 -287 8 -32 45 -129 274 -714 69 -177 126 -328 126
-337 0 -14 83 -16 856 -18 l856 -3 44 -125 c129 -370 298 -899 291 -907 -3 -3
-606 -28 -1339 -56 l-1333 -51 -500 18 c-1253 43 -2367 85 -2371 89 -3 3 65
165 151 360 85 196 155 362 155 369 1 7 29 78 64 158 l63 145 920 3 920 2 11
26 c7 14 12 32 12 41 0 9 90 246 199 527 109 281 201 521 204 534 8 35 181
482 187 482 3 0 49 -115 104 -256z"/>
<path d="M3199 4668 c-8 -24 -49 -135 -91 -248 -42 -113 -82 -223 -88 -245 -7
-22 -98 -262 -201 -533 -104 -271 -189 -500 -190 -510 0 -9 -28 -89 -63 -177
l-62 -160 -140 -3 -140 -3 -40 203 -40 203 -244 3 -245 2 -105 -147 c-58 -80
-110 -158 -115 -172 -10 -23 -18 -13 -105 147 l-95 172 -210 0 -210 0 -83
-190 c-46 -105 -89 -209 -96 -233 -11 -35 -188 -447 -203 -469 -2 -5 88 -8
201 -8 l205 0 82 138 c101 169 106 175 114 136 4 -16 31 -83 60 -149 l54 -120
263 -3 264 -2 54 111 c30 61 67 131 81 156 l26 44 79 -155 79 -156 387 0 386
0 68 83 c37 45 73 88 79 96 11 11 21 8 62 -20 26 -18 50 -35 53 -39 15 -18
186 -120 195 -116 16 6 191 131 210 150 45 44 49 42 127 -59 l73 -95 1083 0
c595 0 1082 3 1082 6 0 4 -26 82 -57 175 l-58 167 -92 44 -92 43 50 68 51 69
-46 159 c-25 88 -46 161 -46 164 0 3 -319 5 -710 5 -390 0 -710 -3 -710 -7 0
-5 32 -77 72 -160 l73 -153 398 -2 399 -3 -51 -69 -50 -70 52 -55 c28 -31 59
-61 67 -68 12 -10 -103 -12 -542 -13 -307 0 -558 2 -558 3 0 2 -27 80 -60 172
-33 92 -60 175 -60 184 0 9 -90 269 -200 579 -110 310 -200 569 -200 575 1 17
-204 597 -210 597 -3 0 -12 -19 -21 -42z m126 -1470 c102 -252 119 -303 106
-325 -8 -16 -197 -153 -210 -153 -13 0 -170 108 -204 140 l-27 27 20 44 c11
24 20 50 20 58 0 19 183 451 190 451 3 0 50 -109 105 -242z"/>
</g>
</svg>
